<svg xmlns="http://www.w3.org/2000/svg" width="336.337" height="78.833" viewBox="0 0 336.337 78.833"><defs><style>.a{fill:#0e656f;}</style></defs><g transform="translate(-129.502 -121.545)"><path class="a" d="M169.6,198.893q13.29,0,26.582-.007a14.309,14.309,0,0,0,2.334-.208,11.915,11.915,0,0,0,9.706-11.591q0-26.142-.008-52.287a10.9,10.9,0,0,0-.125-1.676A11.976,11.976,0,0,0,196.324,123q-26.715-.008-53.414.008a11.955,11.955,0,0,0-11.918,11.936q-.006,26.016.006,52.034a11.17,11.17,0,0,0,.16,1.98,12.013,12.013,0,0,0,11.924,9.949c8.838-.044,17.682-.011,26.521-.011m0-77.347q13.29,0,26.577,0a13.39,13.39,0,0,1,13.455,12.126c.05.539.068,1.086.068,1.629q.006,25.893,0,51.775A13.382,13.382,0,0,1,198.9,200.1a15.338,15.338,0,0,1-2.789.266q-26.552.025-53.1.011a13.425,13.425,0,0,1-13.129-10.26,13.18,13.18,0,0,1-.381-3.03q0-26.142.015-52.283a13.294,13.294,0,0,1,10.969-13.031,13.9,13.9,0,0,1,2.436-.217q13.335-.021,26.675-.01"/><path class="a" d="M465.33,148.188a5.074,5.074,0,1,0-5.1,5.035,5,5,0,0,0,5.1-5.035m-5.08,5.537a5.574,5.574,0,1,1,5.588-5.467,5.6,5.6,0,0,1-5.588,5.467"/><path class="a" d="M164.457,148.137l.121.011c.1-.25.215-.492.3-.746a9.562,9.562,0,0,0,.492-2.906c.014-.965-.047-1.931-.055-2.9-.015-2.961-.093-5.921.082-8.871a6.365,6.365,0,0,1,.981-3.13c.041-.074.064-.159.121-.292a2.54,2.54,0,0,0-1.461.682,3.242,3.242,0,0,0-1,2.225c-.062,1-.037,2-.023,3,.023,2.057.048,4.113.1,6.169.055,1.95.16,3.9.246,5.854.016.3.061.6.092.9m5.514,9.951c.138.149.248.272.367.391.506.507,1.008,1.015,1.515,1.519a4.072,4.072,0,0,1,1.18,2.106,8.3,8.3,0,0,1,.2,1.666c0,2.295-.054,4.593-.064,6.887-.02,4.14-.02,8.276-.031,12.409v.255q-.015,4.88-.03,9.75a3.361,3.361,0,0,0,.037.363h7.475v-.729q0-16.029.006-32.066a2.977,2.977,0,0,0-.406-1.657,26.537,26.537,0,0,0-1.746-2.635c-1.327-1.657-2.741-3.253-4.116-4.872a1.337,1.337,0,0,0-.224-.174,21.177,21.177,0,0,1-4.166,6.787M182.1,194.926H171.658c-.015-.242-.029-.408-.029-.576q.006-5.253.014-10.516c.009-2.248.037-4.492.044-6.738q.021-5.892.043-11.793c0-.7.041-1.394,0-2.085a3.3,3.3,0,0,0-1.086-2.345c-.564-.522-1.08-1.084-1.662-1.672-.177.184-.33.332-.48.485-.33.345-.635.714-.99,1.031a3.831,3.831,0,0,0-1.219,2.824c-.02.324-.012.649,0,.968.017,1.019.056,2.04.062,3.059.016,3.782.016,7.556.02,11.338,0,2.364.01,4.731.015,7.094s.014,4.731.022,7.1c.008.573,0,1.148,0,1.73a.049.049,0,0,1-.022.032.1.1,0,0,1-.046.029,1.216,1.216,0,0,1-.2.032H156.8a1.478,1.478,0,0,1-.229-.04c-.017-.112-.047-.224-.054-.336-.008-.168,0-.339,0-.509q0-16.595-.016-33.185a6.113,6.113,0,0,1,.779-3.02,26.448,26.448,0,0,1,2.471-3.623c1.033-1.29,2.09-2.56,3.152-3.824a.913.913,0,0,0,.221-.742c-.115-1.25-.24-2.5-.3-3.758-.1-2.313-.174-4.624-.232-6.937-.053-2.071-.067-4.148-.08-6.225a5.7,5.7,0,0,1,.66-2.7,4.162,4.162,0,0,1,3.179-2.216,7.141,7.141,0,0,1,2.44-.031,1.278,1.278,0,0,0,.408-.015,6.338,6.338,0,0,1,2.828.192,3.817,3.817,0,0,1,2.412,2.057,6.091,6.091,0,0,1,.641,2.808q-.033,3.5-.1,6.991c-.031,1.668-.068,3.336-.14,5-.059,1.325-.145,2.65-.266,3.966a1.415,1.415,0,0,0,.375,1.147c1.576,1.809,3.156,3.619,4.666,5.48a23.827,23.827,0,0,1,1.818,2.7,4.8,4.8,0,0,1,.68,2.582q-.029,16.743-.01,33.491Z"/><path class="a" d="M152.56,194.89h-9.6v-.683q.021-7.374.039-14.754c.01-3.1.01-6.193.023-9.294.014-1.938.065-3.874.077-5.813a12.262,12.262,0,0,0-.11-1.627,3.073,3.073,0,0,0-.822-1.719c-.947-1.045-1.908-2.088-2.813-3.168a23.556,23.556,0,0,1-2.962-4.4,12.253,12.253,0,0,1-1.364-5.183c-.1-2.688-.242-5.373-.316-8.056-.07-2.431-.07-4.865-.108-7.3a6.585,6.585,0,0,1,.323-2.162,4.023,4.023,0,0,1,3.863-3.03,5,5,0,0,1,1.928.149,4.149,4.149,0,0,1,2.652,2.37,6.792,6.792,0,0,1,.611,2.77q.071,3.723.088,7.45c0,1.259-.058,2.518-.08,3.776a11.025,11.025,0,0,0,.334,2.675,5.813,5.813,0,0,0,1.133,2.316c1.268,1.566,2.525,3.128,3.76,4.712a27.274,27.274,0,0,1,2.576,3.861,6.282,6.282,0,0,1,.779,3.069q-.026,16.679-.012,33.346Z"/><path class="a" d="M194.4,193.447v-.652c-.021-3.335-.051-6.67-.064-10.005-.012-3.1-.012-6.2-.02-9.294q0-4.058-.017-8.117c0-.137-.014-.272-.014-.41.006-.711-.029-1.428.039-2.131a4.5,4.5,0,0,1,1.365-2.893c.707-.689,1.4-1.4,2.08-2.106a27.7,27.7,0,0,0,3.342-4.121,10.337,10.337,0,0,0,1.867-5.062c.153-2.888.313-5.772.416-8.662.077-2.33.079-4.66.1-6.992a5,5,0,0,0-.379-1.992,2.652,2.652,0,0,0-2.021-1.694,6.515,6.515,0,0,0-1.006-.152,3.291,3.291,0,0,0-2.938,1.1,4.347,4.347,0,0,0-.916,2.553c-.185,2.892-.113,5.784-.082,8.676a33.558,33.558,0,0,1-.008,3.923,8.576,8.576,0,0,1-2.16,5.121c-1.426,1.559-2.783,3.171-4.146,4.787a21.4,21.4,0,0,0-2.44,3.459,3.775,3.775,0,0,0-.486,1.893q.021,11.769.008,23.545,0,4.307,0,8.626c0,.2.013.389.025.6Zm1.455,1.451h-10.4c0-.238-.008-.453-.008-.669q-.012-11.384-.008-22.776c0-3.591.022-7.181-.007-10.775a5.24,5.24,0,0,1,.687-2.623,25.183,25.183,0,0,1,2.936-4.111c1.252-1.481,2.5-2.965,3.82-4.386a6.938,6.938,0,0,0,1.826-4.646c.057-1.679-.037-3.365-.045-5.051-.012-1.463.006-2.925.02-4.388,0-.715.033-1.429.054-2.145a7.482,7.482,0,0,1,.571-2.832,4.425,4.425,0,0,1,4.2-2.792,8.506,8.506,0,0,1,1.724.128,4.2,4.2,0,0,1,3.469,3.207,7.085,7.085,0,0,1,.246,2.17c-.027,1.378.008,2.758-.031,4.135-.092,3.2-.193,6.392-.332,9.586a25.012,25.012,0,0,1-.348,3.292,12.472,12.472,0,0,1-2.119,4.66,32.3,32.3,0,0,1-3.834,4.571c-.453.461-.9.94-1.377,1.367a3.642,3.642,0,0,0-1.179,2.781c-.02.529.027,1.051.033,1.581.015,2.758.035,5.512.043,8.271.013,3.1.013,6.194.021,9.294q0,3.368.014,6.741c.008,1.58.016,3.164.023,4.744v.666"/><path class="a" d="M161.205,144.791a7.511,7.511,0,1,1-7.662-7.49,7.482,7.482,0,0,1,7.662,7.49"/><path class="a" d="M191.055,144.809a6.8,6.8,0,1,0-6.858,6.784,6.855,6.855,0,0,0,6.858-6.784m1.431,0a8.238,8.238,0,1,1-8.191-8.237,8.251,8.251,0,0,1,8.191,8.237"/><path class="a" d="M458.635,148.055a12.233,12.233,0,0,0,2.207-.065,1.18,1.18,0,0,0,1.035-1.123,1.222,1.222,0,0,0-1.182-1.422c-.474-.047-.963-.026-1.441-.031-.2,0-.412.016-.619.02Zm-.03.45v2.9h-.49v-6.349c.041-.03.07-.072.1-.072.894.009,1.789-.025,2.672.046a1.487,1.487,0,0,1,1.465,1.194,1.6,1.6,0,0,1-.741,1.9,1.138,1.138,0,0,0-.189.166,1.515,1.515,0,0,1,.978,1.733,1.912,1.912,0,0,0,.3,1.33c-.56.141-.66.108-.748-.4a6.119,6.119,0,0,1-.07-1.065,1.236,1.236,0,0,0-1.264-1.361,12.862,12.862,0,0,0-2.016-.018"/><path class="a" d="M408.144,140.463h18.961q3.039,7.965,6.071,15.937c2.015,5.292,4.027,10.59,6.115,15.868.08-5.3,0-10.586-.037-15.872s-.061-10.593-.09-15.921h11.053c.109.416.152,40.724.051,41.663-.409.124-17.422.181-19.227.063q-6.111-16.023-12.231-32.1c-.042.007-.082.011-.123.015-.005.361-.021.719-.013,1.078.021,1.323.054,2.641.076,3.961q.07,4.362.135,8.725.053,3.077.109,6.156.053,3.318.108,6.637.047,2.624.1,5.244a1.932,1.932,0,0,1-.037.276H408.144Z"/><path class="a" d="M218.373,140.5h18.3c.683,0,.582-.046.8.54q4.146,10.881,8.286,21.758,1.716,4.528,3.441,9.053a1.883,1.883,0,0,0,.271.521c.081-5.307-.027-10.608-.043-15.908s-.068-10.594-.109-15.928h11.111v41.7H241.205q-6.132-16.063-12.24-32.121c-.039.011-.088.018-.125.026,0,.261-.006.517,0,.777.031,1.981.07,3.961.1,5.941q.064,4.119.133,8.245c.033,2,.076,4,.106,5.992q.062,3.372.109,6.744c.023,1.252.051,2.5.082,3.75,0,.191,0,.389,0,.568-.408.138-10.287.174-10.986.057-.1-.392-.135-41.037-.014-41.718"/><path class="a" d="M327.941,140.463h11.08a2.987,2.987,0,0,1,.053.371c.012.912.022,1.82.026,2.732.021,4.036.029,8.067.05,12.1,0,.174.014.345.03.549.2.013.379.027.552.03.748,0,1.5-.024,2.246.011a1.069,1.069,0,0,0,1.055-.532c2.342-3.458,4.711-6.9,7.072-10.343,1.051-1.533,2.11-3.06,3.147-4.6a.7.7,0,0,1,.648-.354q6.332.012,12.655.008c.089,0,.177.012.359.023-.959,1.439-1.949,2.775-2.906,4.135q-1.463,2.055-2.92,4.1-1.479,2.073-2.953,4.146-1.457,2.051-2.918,4.1c-.971,1.369-1.942,2.734-2.922,4.114,5.3,7.046,10.576,14.063,15.906,21.134h-13.66c-.356-.487-.738-1-1.111-1.522q-5.18-7.1-10.35-14.2a1.1,1.1,0,0,0-1-.54c-.734.01-1.463-.06-2.2-.093-.207-.007-.418,0-.676,0v16.288c-.447.131-9.551.178-11,.071a3.432,3.432,0,0,1-.045-.394c-.014-.768-.014-1.534-.021-2.3-.008-2.749-.012-5.5-.028-8.247-.015-3.448-.041-6.889-.058-10.337q-.03-5.029-.045-10.066-.033-4.848-.065-9.693v-.7"/><path class="a" d="M324.527,140.606c-4.849,6.815-9.7,13.631-14.59,20.509q7.911,10.507,15.881,21.1c-.224.025-.375.056-.523.056-4.217,0-8.434,0-12.649.014a.873.873,0,0,1-.771-.458q-5.572-7.641-11.133-15.282a1.132,1.132,0,0,0-1-.555c-.84-.011-1.68-.07-2.515-.109-.1,0-.2.02-.37.031v16.257c-.459.12-10.3.151-11.013.05a3.225,3.225,0,0,1-.045-.4c-.008-.7-.014-1.392-.014-2.089-.016-2.961-.019-5.924-.033-8.888q-.033-8.006-.076-16.011c-.016-1.68-.016-3.354-.03-5.033q-.035-4.31-.062-8.62c0-.2,0-.391,0-.578.4-.126,10.152-.171,11.082-.054.021.121.053.252.066.391s.01.281.01.426q.027,7.149.049,14.3v.615c.2.017.355.036.51.036.842,0,1.685-.015,2.521.01a.768.768,0,0,0,.742-.393q4.808-7.032,9.623-14.047c.248-.359.5-.7.729-1.066a.644.644,0,0,1,.617-.327c1.25.014,2.5.007,3.75.007h9.16a1.12,1.12,0,0,1,.084.107"/><path class="a" d="M381.6,165.135v8.2c.21.015.363.032.515.032q3.618.018,7.237.026,5.571.024,11.148.049h.465c.111.424.15,8.01.053,8.847-.377.116-29.688.163-30.52.049-.113-.365-.16-41.158-.037-42.036H400.6v9.146H381.56c.036,2.648.067,5.232.1,7.88.238.016.461.039.68.039q7.368,0,14.744,0c.588,0,1.174,0,1.771,0,.174,0,.35.016.6.027v7.743Z"/><path class="a" d="M278.318,182.243h-10.8c-.125-.39-.171-40.775-.054-41.645.357-.119,9.959-.168,10.781-.051a.213.213,0,0,1,.039.035c.012.016.027.029.027.045q.018,20.588.028,41.178c0,.123-.006.246-.022.438"/></g></svg>