<svg xmlns="http://www.w3.org/2000/svg" xmlns:xlink="http://www.w3.org/1999/xlink" width="1920" height="3490" viewBox="0 0 1920 3490"><defs><clipPath id="a"><rect width="1920" height="3490" transform="translate(-7669 18644)" fill="#0e656f" opacity="0.1"/></clipPath></defs><g transform="translate(7669 -18644)" clip-path="url(#a)"><rect width="1920" height="3490" transform="translate(-7669 18644)" fill="#fff"/><rect width="1920" height="3490" transform="translate(-7669 18644)" fill="#0e656f" opacity="0.1"/><g transform="translate(-7669 18644)" opacity="0.1"><path d="M-1962.371-460.581c270.793,91.059,696.756,473.387,416.933-44.673-344.8-638.4,864.779,84.291,1156.486,28.7,172.885-32.95,197.435-249.339,557.287-.026C1105.288,172.533,1077.1,6.023,1238.487-152.329c319.41-313.44,986.975,984.874,1244.872,598.364,6.365-9.534,12.711-18.309,19.063-27.313l-4.081,12.649c-4.221,6.1-8.421,11.8-12.643,18.128C2227.78,836,1560.207-462.315,1240.806-148.871,1079.423,9.495,1107.6,175.99,170.647-473.128c-359.838-249.309-384.393-32.9-557.292.04-291.681,55.579-1501.277-667.1-1156.475-28.709,280.915,520.064-149.419,132.8-420.051,43.7l.8-2.48Z" fill="#0ca1a5" fill-rule="evenodd"/><path d="M-1969.385-438.849c271.014,94.412,687.422,463.619,408.959-48.382-346.238-636.607,863.964,81.682,1155.153,25.312,172.576-33.4,196.47-249.623,556.612-1.651,937.676,645.606,909.043,479.38,1069.779,320.737C1539.21-456.815,2209.742,837.984,2466.2,451.212c15.72-23.707,31.346-45.233,46.935-65.705l-3.652,11.309c-13.593,18.206-27.24,37.16-40.939,57.839C2212.064,841.432,1541.539-453.367,1223.44-139.367,1062.714,19.27,1091.341,185.488,153.659-460.132c-360.129-247.962-384.029-31.739-556.61,1.657-291.172,56.359-1501.386-661.912-1155.156-25.3,279.513,513.925-141.112,139.946-412.038,47.28l.76-2.356Z" fill="#0ca1a5" fill-rule="evenodd"/><path d="M-1976.274-417.552c271.092,97.879,677.124,453.247,400.283-52.328-347.658-634.929,863.254,79.14,1153.964,22.01,172.292-33.864,195.541-249.9,555.983-3.23,938.472,642.247,909.406,476.286,1069.506,317.368,316.853-314.549,990.324,976.923,1245.4,589.828a1148.939,1148.939,0,0,1,73.789-100.083l-3.27,10.135c-22.61,27.862-45.32,58.707-68.185,93.395-255.086,387.08-928.544-904.38-1245.412-589.846C1045.7,28.621,1074.77,194.575,136.28-447.669-224.153-694.345-247.4-478.293-419.7-444.43c-290.7,57.12-1501.606-656.942-1153.95-22.012,277.891,507.507-132.3,147.5-403.385,51.238l.757-2.348Z" fill="#0ca1a5" fill-rule="evenodd"/><path d="M-1983.017-396.609c270.95,101.345,665.855,442.238,390.908-56.634-349.058-633.331,862.617,76.69,1152.867,18.81,172.035-34.3,194.668-250.19,555.436-4.768,939.329,639.025,909.851,473.319,1069.34,314.113,315.675-315.11,992.039,973.219,1245.809,585.829,33.52-51.184,66.761-94.348,99.763-130.924l-2.941,9.12c-31.266,35.317-62.75,76.781-94.488,125.23-253.764,387.4-930.138-900.934-1245.813-585.833-159.489,159.2-130.015,324.919-1069.322-314.089-360.775-245.434-383.408-29.554-555.432,4.76-290.258,57.864-1501.951-652.149-1152.871-18.8,275.986,500.735-122.966,155.341-393.98,55.431l.724-2.244Z" fill="#0ca1a5" fill-rule="evenodd"/><path d="M-1989.649-376.061c270.593,104.742,653.669,430.624,380.845-61.231C-1959.257-1069.169-746.723-363-456.876-421.611-285.089-456.334-263.05-672.1,98.072-427.854c940.215,635.95,910.31,470.463,1069.236,310.963,314.566-315.669,993.806,969.719,1246.306,581.979,42.053-64.568,83.717-116.836,124.99-158.492l-2.8,8.678c-39.584,40.789-79.531,91.349-119.822,153.236-252.521,387.736-931.75-897.658-1246.314-581.974-158.939,159.5-129.023,324.993-1069.259-310.985-361.1-244.227-383.152-28.463-554.937,6.263-289.852,58.592-1502.4-647.558-1151.911-15.7,273.855,493.729-113.185,163.526-383.939,60.094l.732-2.27Z" fill="#0ca1a5" fill-rule="evenodd"/><path d="M-1996.164-355.869c269.951,107.984,640.534,418.346,370.106-66.253-351.843-630.486,861.622,71.994,1151.1,12.7,171.58-35.168,193.045-250.816,554.518-7.693,941.18,633.045,910.879,467.75,1069.273,307.969C1462.345-425.4,2144.4,857.27,2395.716,469.163c50.306-77.7,100.111-137.686,149.389-182.715l-2.666,8.254c-47.651,44.5-95.756,102.816-144.358,177.868C2146.756,860.7,1464.7-422,1151.183-105.754c-158.4,159.8-128.074,325.089-1069.256-307.935-361.494-243.143-382.957-27.48-554.52,7.678-289.488,59.308-1502.965-643.175-1151.119-12.7,271.451,486.415-102.961,171.862-373.15,64.995l.7-2.157Z" fill="#0ca1a5" fill-rule="evenodd"/><path d="M-2002.533-336.135C-1733.581-225.1-1376.116,69.3-1643.9-407.722c-353.2-629.209,861.267,69.807,1150.432,9.814,171.386-35.569,192.3-251.149,554.152-9.069C1002.863,223.3,972.159,58.2,1130.059-101.888c312.522-316.858,997.373,963.339,1247.567,574.832,58.336-90.592,116.021-157,173.081-203.831l-2.4,7.439C2492.8,323.17,2436.7,388.285,2380,476.344,2129.8,864.852,1444.949-415.329,1132.431-98.486c-157.918,160.1-127.2,325.211-1069.383-305.092C-298.8-645.657-319.717-430.062-491.1-394.507c-289.157,59.994-1503.637-639-1150.431-9.8,268.805,478.86-92.414,180.392-361.7,70.336l.7-2.163Z" fill="#0ca1a5" fill-rule="evenodd"/><path d="M-2008.8-316.732c267.573,113.779,611.4,391.863,346.5-77.356-354.556-628.057,861.009,67.69,1149.876,7.008,171.2-35.948,191.593-251.48,553.853-10.392C984.673,230.225,953.6,65.267,1111.024-95.114c311.6-317.454,999.207,960.442,1248.334,571.542,66.19-103.325,131.6-175.328,196.269-222.561l-2.171,6.731c-63.177,47.272-127.088,118.3-191.74,219.229C2112.6,868.723,1425-409.167,1113.39-91.714,955.95,68.662,987.05,233.637,43.811-394.075c-362.274-241.084-382.656-25.559-553.854,10.4-288.869,60.65-1504.446-635.063-1149.893-7.043,265.907,471.045-81.548,189.028-349.537,76.086l.677-2.1Z" fill="#0ca1a5" fill-rule="evenodd"/><path d="M-2014.9-297.806c265.742,116.179,595.358,377.639,333.633-83.5-355.87-626.99,860.851,65.665,1149.473,4.37,171.055-36.344,190.932-251.845,553.614-11.692C966.164,236.674,934.685,71.838,1091.7-88.85c310.758-318.035,1001.061,957.79,1249.2,568.441,73.874-115.94,146.908-192.719,219.038-239.08l-1.965,6.081c-70.724,46.645-142.291,122.8-214.7,236.387-248.133,389.343-938.43-886.495-1249.2-568.44-157,160.7-125.549,325.535-1069.881-299.762C-338.5-625.377-358.365-409.9-529.431-373.563c-288.622,61.318-1505.34-631.345-1149.471-4.356,262.727,462.9-70.413,197.656-336.663,82.161l.661-2.048Z" fill="#0ca1a5" fill-rule="evenodd"/><path d="M-2020.885-279.274c263.437,118.16,578.4,362.72,320.07-90.086-357.172-626.048,860.772,63.758,1149.188,1.818,170.942-36.709,190.339-252.19,553.472-12.886C947.309,242.627,915.485,77.915,1072.126-83.1,1382.1-401.744,2075.033,872.25,2322.245,482.452,2403.7,354.021,2484.2,273.173,2563.683,228.884l-1.859,5.759c-78.106,44.808-157.185,125.049-237.184,251.2C2077.425,875.637,1384.485-398.367,1074.508-79.709,917.872,81.291,949.7,246.008,4.218-377.061c-363.125-239.273-382.52-23.8-553.455,12.911-288.415,61.929-1506.363-627.889-1149.206-1.829,259.331,454.564-59.056,206.349-323.1,88.759l.663-2.054Z" fill="#0ca1a5" fill-rule="evenodd"/><path d="M-2026.725-261.18c260.585,119.635,560.462,347.079,305.8-97.128-358.432-625.222,860.8,61.956,1149.062-.57,170.828-37.076,189.774-252.568,553.358-14.06,946.661,621,914.5,456.381,1070.764,295.066C1361.53-397.141,2057.045,875.24,2303.409,484.978c88.842-140.723,176.664-224.376,263.337-265.564l-1.782,5.522c-85.322,41.885-171.728,124.955-259.154,263.423C2059.441,878.611,1363.924-393.76,1054.634-74.49,898.379,86.82,930.546,251.449-16.126-369.547-379.7-608.066-398.65-392.577-569.491-355.506c-288.246,62.534-1507.479-624.648-1149.05.578C-1462.9,91-1766.079-139.938-2027.368-259.186l.643-1.994Z" fill="#0ca1a5" fill-rule="evenodd"/><path d="M-2032.4-243.587c257.149,120.607,541.5,330.746,290.794-104.569C-2101.27-972.667-880.669-287.9-592.55-351.008-421.787-388.4-403.273-603.923-39.214-366.147,908.664,252.973,876.183,88.422,1032.12-73.2c308.65-319.875,1006.685,951.123,1252.274,560.387,96.1-152.884,191.1-238.436,284.86-275.567l-1.612,5c-92.454,37.969-186.121,123.241-280.844,273.93C2041.2,881.295,1343.161-389.711,1034.525-69.838,878.579,91.79,911.071,256.355-36.824-362.782-400.877-600.558-419.39-385.03-590.156-347.629c-288.122,63.093-1508.713-621.657-1149.057,2.846,251.693,437.034-35.869,223.495-293.818,103.145l.629-1.949Z" fill="#0ca1a5" fill-rule="evenodd"/><path d="M-2037.92-226.491c253.084,120.953,521.555,313.715,275.078-112.458-360.881-623.914,861.138,58.676,1149.179-4.968C-442.943-381.65-424.832-597.229-60.289-360.1,888.871,257.362,856.069,92.833,1011.73-69.1c308.09-320.47,1008.56,949.369,1253.459,558.132,103.267-164.962,205.417-251.823,306.184-283.979l-1.466,4.54c-99.51,33.132-200.383,119.967-302.306,282.8C2022.7,883.66,1322.218-386.2,1014.118-65.727,858.495,96.208,891.268,260.712-57.874-356.718c-364.552-237.15-382.671-21.543-553.386,16.17-288.034,63.629-1510.048-618.957-1149.185,4.972,247.478,427.866-24.135,231.866-278.1,111.014l.623-1.929Z" fill="#0ca1a5" fill-rule="evenodd"/><path d="M-2043.276-209.9c248.332,120.66,500.6,295.9,258.627-120.794-362.019-623.47,861.46,57.178,1149.468-6.974C-464.5-375.685-446.741-591.356-81.7-354.8,868.757,261.171,835.65,96.673,991.077-65.565,1298.689-386.666,2001.528,882.3,2245.81,490.529c110.354-176.956,219.6-264.547,327.318-290.887l-1.385,4.289c-106.5,27.459-214.46,115.087-323.524,289.971C2003.929,885.674,1301.1-383.3,993.483-62.209,838.08,100.03,871.161,264.54-79.284-351.423c-365.038-236.56-382.8-20.887-553.494,17.13-288,64.146-1511.48-616.494-1149.457,6.96,242.943,418.4-12.343,240.062-261.66,119.354l.619-1.916Z" fill="#0ca1a5" fill-rule="evenodd"/><path d="M-2048.465-193.865c242.864,119.689,478.638,277.336,241.453-129.6-363.134-623.107,861.895,55.835,1149.884-8.8,170.7-38.306,188.11-254.081,553.654-18.01C848.307,264.408,814.94,99.889,970.163-62.643c307.217-321.694,1012.32,946.627,1256.084,554.328,117.307-188.817,233.525-276,348.1-295.822l-1.326,4.119c-113.366,21.065-228.325,108.325-344.372,295.057C1984.9,887.34,1279.789-380.987,972.58-59.286,817.362,103.265,850.717,267.78-101.057-346.917-466.6-582.989-484.027-367.2-654.7-328.883-942.71-264.258-2167.735-943.219-1804.6-320.106c238.152,408.63-.561,247.972-244.478,128.132l.61-1.891Z" fill="#0ca1a5" fill-rule="evenodd"/><path d="M-2053.44-178.4c236.557,117.914,455.565,257.951,223.518-138.864-364.23-622.9,862.366,54.624,1150.437-10.463,170.715-38.568,187.842-254.488,553.9-18.818C827.554,267.055,793.931,102.5,949-60.339c306.891-322.305,1014.184,945.624,1257.49,552.792C2330.713,291.885,2453.838,205.806,2575.2,193.19L2574,196.929c-120.186,13.967-242.11,100.327-365.072,298.878C1965.609,888.654,1258.32-379.281,951.415-56.982,796.362,105.874,829.974,270.428-123.162-343.173c-366.073-235.691-383.179-19.766-553.906,18.815-288.044,65.066-1514.656-612.442-1150.427,10.45,233.022,398.515,11.172,255.59-226.546,137.366l.6-1.862Z" fill="#0ca1a5" fill-rule="evenodd"/><path d="M-2058.217-163.6c229.442,115.357,431.4,237.766,204.833-148.553-365.259-622.807,862.978,53.534,1151.129-11.955C-531.47-362.937-514.63-579-148.026-343.651c954.51,612.748,920.664,448.137,1075.6,285,306.672-322.9,1016.036,944.882,1259,551.484,131.069-212.255,261.126-296.714,389.246-301.506l-1.1,3.411c-126.962,6.2-255.841,91.157-385.715,301.458C1946.058,889.6,1236.665-378.2,930.006-55.3,775.055,107.837,808.913,272.453-145.619-340.293c-366.591-235.344-383.435-19.27-554.221,19.544-288.138,65.5-1516.375-610.844-1151.108,11.963,227.571,388.012,22.826,262.806-207.865,147.031l.6-1.843Z" fill="#0ca1a5" fill-rule="evenodd"/><path d="M-2062.776-149.474c221.4,111.9,406.145,216.737,185.4-158.671-366.25-622.852,863.666,52.6,1151.946-13.278,170.867-39.036,187.469-255.305,554.608-20.2C785.108,270.494,751.037,105.792,905.922-57.633c306.514-323.492,1017.853,944.426,1260.542,550.45,137.9-223.869,274.83-306.083,409.654-302.44l-1.1,3.4c-133.667-2.112-269.425,80.485-406.123,302.4C1926.2,890.154,1214.865-377.769,908.351-54.278,753.479,109.173,787.531,273.847-168.385-338.254c-367.15-235.089-383.757-18.851-554.61,20.187C-1011.277-252.185-2241.2-927.633-1874.94-304.794c221.754,377.137,34.332,269.612-188.43,157.162l.594-1.842Z" fill="#0ca1a5" fill-rule="evenodd"/><path d="M-2067.1-136.086C-1854.681-28.57-1687.4,58.737-1901.94-305.293c-35.252-59.821-55.637-107.571-63.666-145.265l1.177-3.648c6.806,38.7,27.424,88.629,64.924,152.275,215.575,365.758,45.648,275.881-168.184,167.677l.592-1.832Zm134.861-417.866C-1752.078-656.867-971.08-268.736-748.991-319.7c170.958-39.251,187.376-255.688,555.058-20.767C763.41,271.227,729.146,106.442,884.011-57.3,1190.479-381.36,1903.663,886.945,2146.173,492.4c144.667-235.371,288.407-314.263,429.846-301.733l-1,3.1c-140.33-10.941-282.917,68.541-426.4,302C1906.095,890.313,1192.913-378,886.436-53.927,731.6,109.8,765.849,274.6-191.486-337.1c-367.691-234.938-384.114-18.49-555.085,20.765C-970.515-264.947-1762.745-660.018-1934.2-547.871l1.963-6.081Z" fill="#0ca1a5" fill-rule="evenodd"/><path d="M-2071.162-123.491c202.382,102.114,352.048,171.972,144.156-180.127-23.905-40.485-40.9-75.357-51.989-105.454l.618-1.915c10.972,31.268,28.467,67.822,53.809,110.724,208.94,353.859,56.723,281.533-147.182,178.6l.588-1.824Zm142.121-440.361C-1706.52-620.97-984.984-270.139-772.953-318.986c171.106-39.413,187.365-256.1,555.587-21.24C741.41,271.3,706.992,106.375,861.851-57.652,1168.368-382.279,1883.3,886.7,2125.7,491.57c151.435-246.831,302-321.97,450.036-300.046l-.907,2.814c-146.943-20.3-296.387,55.62-446.676,300.6C1885.727,890.065,1170.8-378.916,864.3-54.282,709.429,109.732,743.855,274.672-214.915-336.864c-368.231-234.859-384.494-18.182-555.6,21.235-213.332,49.146-942.324-306.178-1160.01-243.624l1.485-4.6Z" fill="#0ca1a5" fill-rule="evenodd"/><path d="M-2074.95-111.805c191.219,95.641,323.1,148.164,122.34-191.392a798.212,798.212,0,0,1-37.645-71.033l.354-1.094a785.938,785.938,0,0,0,39.736,75.5c201.839,341.345,67.487,286.454-125.378,189.861l.593-1.844Zm147.35-456.564c249.075-26.846,926.028,296.252,1130.3,249.059,171.259-39.581,187.4-256.505,556.194-21.6C719.11,270.677,684.552,105.588,839.472-58.719c306.653-325.176,1023.172,944.74,1265.6,549.018C2263.294,232.035,2420.7,161.1,2575.3,192.9l-.905,2.808c-153.54-30.1-309.795,41.57-466.9,297.96C1865.081,889.377,1148.568-380.529,841.925-55.348c-154.939,164.3-120.358,329.4-1080.587-282.205-368.779-234.891-384.921-17.959-556.18,21.621-205.3,47.415-887.963-279.086-1133.99-248.618l1.232-3.819Z" fill="#0ca1a5" fill-rule="evenodd"/><path d="M-2078.394-101.082c178.828,87.993,292.784,123.314,99.662-202.962-8.048-13.622-15.093-26.4-21.64-38.791l.266-.821c7.122,13.658,14.852,27.815,23.819,42.986C-1782.076,27.435-1898.434-10.159-2079-99.211l.6-1.871ZM-1926.7-571.107c268.122-3.728,907.2,296.147,1104.69,250.412,171.454-39.7,187.512-256.9,556.86-21.886,961.67,611.914,926.98,446.623,1082.038,282.05C1123.763-386.246,1841.7,884.9,2084.261,488.589c164.976-269.545,329.14-335.153,490.232-293.173l-.828,2.566c-160.059-40.242-323.089,26.261-486.947,293.973C1844.162,888.277,1126.191-382.869,819.333-57.163,664.293,107.423,698.969,272.7-262.707-339.2c-369.339-235.021-385.4-17.831-556.854,21.868-198.347,45.926-842.143-256.752-1108.228-250.4l1.088-3.373Z" fill="#0ca1a5" fill-rule="evenodd"/><path d="M-2081.5-91.507C-1916.46-12.5-1820.565,5.816-2005.35-306.2c-1.572-2.646-2.877-5.071-4.386-7.668l.2-.607c2.248,3.918,4.279,7.638,6.632,11.636,185.952,313.988,87.737,293.5-79.208,213.243l.616-1.908Zm155.425-481.586c282.269,14.739,887.651,294.255,1078.981,249.9,171.685-39.8,187.693-257.279,557.6-22.055C673.624,267.225,638.849,101.739,794.056-63.1c307.211-326.234,1026.459,946.43,1269.22,549.543,171.777-280.815,342.7-340.69,510.277-288.116l-.755,2.336c-166.529-50.8-336.379,10.128-507.053,289.142-242.793,396.9-962.023-875.769-1269.228-549.532C641.32,105.107,676.088,270.6-287.035-341.878c-369.9-235.226-385.931-17.728-557.589,22.057-192.134,44.534-801.694-237.433-1082.491-250.051l1.041-3.221Z" fill="#0ca1a5" fill-rule="evenodd"/><path d="M-2084.163-83.2c145.6,66.678,222.822,69.708,65.471-202.865l.18-.559c161.447,278.418,81.936,273.683-66.281,205.371l.63-1.947Zm158.69-491.707C-1632.59-544.956-1058.1-283.8-872.519-326.824c171.924-39.861,187.957-257.668,558.4-22.117C650.446,264.366,615.62,98.638,771.022-66.439c307.641-326.735,1028.019,947.746,1271.125,550.254,178.624-292.067,356.37-345.757,530.356-282.225l-.742,2.289c-172.956-61.7-349.627-6.968-527.146,283.3C1801.5,884.68,1081.14-389.8,773.488-63.064,618.08,102.013,652.894,267.736-311.658-345.575c-370.438-235.541-386.478-17.736-558.4,22.139-186.3,43.193-764.619-220.209-1056.4-248.433l.981-3.042Z" fill="#0ca1a5" fill-rule="evenodd"/><path d="M-2086.331-76.487c123.006,52.424,182.752,43.132,58.628-181.663l.212-.655C-1899.4-28.2-1961.155-20.21-2087-74.421l.667-2.066Zm161.465-500.3c300.531,42.453,846.444,286.894,1026.556,245.152C-726.1-371.54-710-589.7-339.005-353.712,626.973,260.7,592.122,94.713,747.813-70.611,1055.968-397.818,1777.3,878.777,2020.837,480.7c185.49-303.2,369.992-349.646,550.318-274.94l-.685,2.126c-179.328-72.869-362.76-25.244-547.15,276.187-243.569,398.1-964.884-878.495-1273.043-551.29C594.58,98.093,629.428,264.088-336.539-350.337c-371-235.971-387.095-17.815-559.294,22.093C-1076.636-286.36-1626-532.806-1925.8-573.909l.93-2.878Z" fill="#0ca1a5" fill-rule="evenodd"/><path d="M-2087.86-71.751c98.377,36.944,141.936,18.283,50.9-157.718l.266-.821c94.834,181.714,49.464,199.456-51.862,160.691l.695-2.152ZM-1924.121-579.1c305.86,52.961,824.825,281.882,999.714,241.422,172.505-39.916,188.689-258.415,560.244-21.91C603.233,256.219,568.367,89.938,724.4-75.6,1033.186-403.244,1755.265,875.754,1999.376,477.08,2191.807,162.787,2383.087,124.017,2569.72,210.2l-.622,1.928c-185.644-84.339-375.887-44.226-567.255,268.338C1757.737,879.131,1035.644-399.857,726.86-72.217,570.845,93.329,605.694,259.608-361.686-356.193c-371.545-236.515-387.754-17.983-560.252,21.908-175.544,40.6-697.685-190.145-1003.09-242l.907-2.808Z" fill="#0ca1a5" fill-rule="evenodd"/><path d="M-2088.478-69.836c71.184,20.367,99.679-4.047,41.709-129.24l.359-1.108c61.662,131.008,31.482,154.942-42.837,132.73l.769-2.382ZM-1923.184-582c309.178,61.761,802.558,276.2,972.348,237.03,172.862-39.875,189.2-258.779,561.287-21.626C579.216,250.873,544.4,84.275,700.795-81.475c309.544-328.063,1032.181,953.686,1276.973,554.429,199.468-325.372,397.559-356,590.437-258.06l-.622,1.936c-191.918-96.049-388.944-64.119-587.367,259.527C1735.444,875.6,1012.81-406.133,703.264-78.079,546.866,87.662,581.7,254.274-387.1-363.193-759.158-600.352-775.5-381.459-948.355-341.579-1118.778-302.25-1615.1-518.393-1924.07-579.255l.886-2.748Z" fill="#0ca1a5" fill-rule="evenodd"/><path d="M-2087.5-72.866c40.743,3.639,56.038-20.3,29.811-92.365l.553-1.714c29.657,78.182,12.973,102.584-31.358,97.162l.994-3.083Zm165.486-512.757c310.745,69.09,779.629,269.931,944.473,232.052,173.181-39.836,189.752-259.129,562.36-21.22C554.957,244.66,520.193,77.706,677.021-88.228,987.435-416.661,1710.411,868.1,1955.982,468.3c206.595-336.339,411.415-357.811,610.464-247.957l-.564,1.758c-198.091-107.964-401.889-85.034-607.426,249.6C1712.876,871.514,989.9-413.257,679.511-84.825,522.665,81.112,557.423,248.062-412.7-371.384-785.3-609.291-801.869-390-975.077-350.167c-165.438,38.013-637.095-164.4-947.8-232.774l.866-2.682Z" fill="#0ca1a5" fill-rule="evenodd"/><path d="M-2080.442-94.737c3.595-4.9,5.875-11.316,6.377-19.759l2.28-7.064c1.4,17.8-2.814,29.187-11.478,35.567l2.821-8.744Zm159.857-495.316c310.7,75.126,756.075,263.1,916.027,226.511,173.619-39.711,190.427-259.447,563.54-20.66C530.423,237.523,495.769,70.185,653.115-95.915,964.483-424.677,1687.572,863.461,1934.054,463.094c213.827-347.3,425.425-359.19,630.594-237.173l-.52,1.607C2359.9,107.4,2149.32,120.891,1936.532,466.505,1690.045,866.891,966.944-421.268,655.572-92.508,498.249,73.609,532.9,240.946-438.553-380.8c-373.1-238.768-389.923-19.045-563.532,20.655-160.535,36.741-608.506-152.724-919.344-227.3l.844-2.611Z" fill="#0ca1a5" fill-rule="evenodd"/><path d="M-1918.862-595.393c309.212,79.991,731.873,255.772,887.037,220.479,174.023-39.565,191.178-259.748,564.766-19.967,972.724,624.327,938.217,456.6,1096.09,290.325,312.481-329.05,1035.435,962.783,1282.982,561.887,221.181-358.218,439.536-359.912,650.741-225.545l-.511,1.587c-210.281-132.433-427.627-129.15-647.769,227.372C1666.93,861.66,943.972-430.189,631.509-101.12,473.638,65.145,508.14,232.881-464.577-391.457c-373.591-239.782-390.748-19.594-564.772,19.978-155.7,35.411-580.854-141.756-890.339-221.355l.826-2.559Z" fill="#0ca1a5" fill-rule="evenodd"/><path d="M-1916.811-601.75c306.387,83.837,707.077,247.966,857.489,214.023,174.47-39.38,192-260.043,566.061-19.13C480.658,220.4,446.343,52.227,604.823-114.166,918.528-443.477,1641.085,852.391,1889.8,450.976,2118.474,81.926,2343.558,91.3,2560.71,238.123l-.475,1.464c-216.22-144.92-440.317-152.559-667.962,214.826C1643.561,855.828,921-440.045,607.3-110.73,448.8,55.66,483.115,223.828-490.794-403.417c-374.061-240.919-391.589-20.255-566.064,19.12C-1207.8-350.2-1610.84-515.685-1917.631-599.211l.82-2.539Z" fill="#0ca1a5" fill-rule="evenodd"/><path d="M-1914.4-609.208c302.3,86.712,681.662,239.763,827.325,207.163,174.963-39.162,192.955-260.3,567.448-18.138C455.433,210.31,421.35,41.707,580.517-124.8,895.545-454.3,1617.443,845.949,1867.479,444.043c236.35-379.882,468.142-358.95,691.151-199.478l-.423,1.312C2336.084,88.306,2105.269,69.261,1869.952,447.494,1619.915,849.4,898.026-450.87,582.985-121.345c-159.171,166.5-125.08,335.11-1100.146-295.4-374.489-242.154-392.47-21.027-567.431,18.15-146.2,32.71-527.775-121.562-830.621-208.109l.81-2.506Z" fill="#0ca1a5" fill-rule="evenodd"/><path d="M-1911.622-617.828c297.064,88.7,655.674,231.123,796.621,199.889,175.478-38.894,193.971-260.528,568.864-16.978C430,199.205,396.184,30.093,556.1-136.467c316.5-329.662,1037.435,975.309,1288.932,572.934,244.178-390.62,482.65-357.392,711.409-185.149l-.428,1.32C2328.141,82.309,2090.642,50.967,1847.511,439.93,1596,842.3,875.075-462.666,558.563-133.007,398.651,33.555,432.471,202.667-543.662-431.454-918.564-675-937.05-453.34-1112.533-414.477c-141.456,31.351-502.193-112.24-799.889-200.871l.8-2.48Z" fill="#0ca1a5" fill-rule="evenodd"/><path d="M-1908.425-627.732c290.715,89.881,629.115,222.158,765.328,192.309,176.008-38.564,195.08-260.735,570.353-15.666C404.388,187,370.881,17.372,531.608-149.24,849.71-478.989,1569.36,831.066,1822.475,428.273c252.191-401.316,497.3-355.018,731.7-169.921l-.388,1.207C2320.247,76.335,2076.109,32.065,1824.951,431.753,1571.824,834.543,852.185-475.5,534.061-145.761,373.35,20.848,406.859,190.475-570.276-447.6c-375.27-245.078-394.343-22.906-570.358,15.655-136.72,29.963-477.152-103.42-768.586-193.319l.795-2.464Z" fill="#0ca1a5" fill-rule="evenodd"/><path d="M-1904.8-638.952c283.318,90.292,601.988,212.8,733.468,184.347,176.578-38.192,196.292-260.9,571.913-14.17,978,642.439,944.858,472.263,1106.485,305.652C826.905-492.895,1544.913,822.613,1799.8,419.411c260.449-411.98,512.156-352.07,752.1-153.994l-.375,1.156C2312.435,70.351,2061.683,12.56,1802.27,422.912,1547.382,826.09,829.362-489.4,509.516-159.636,347.923,6.985,381.046,177.161-596.955-465.268-972.57-712.007-992.3-489.3-1168.873-451.109c-131.972,28.545-452.591-94.994-736.725-185.382l.794-2.461Z" fill="#0ca1a5" fill-rule="evenodd"/><path d="M-1900.744-651.585c274.957,89.97,574.359,203.076,701.032,176.072,177.206-37.756,197.642-261.038,573.556-12.48C352.624,159.157,319.915-11.58,482.461-178.169,804.176-507.888,1520.235,813.387,1777.039,409.858,2045.931-12.7,2304.152,61.766,2549.48,272.89l-.354,1.1C2304.631,64.725,2047.371-7.547,1779.49,413.373,1522.7,816.9,806.65-504.378,484.929-174.664,322.359-8.074,355.085,162.66-623.69-484.479c-375.908-248.549-396.362-25.289-573.557,12.486-127.183,27.1-428.439-87.019-704.289-177.138l.792-2.454Z" fill="#0ca1a5" fill-rule="evenodd"/><path d="M-1896.19-665.7c265.625,88.943,546.183,193.019,668.063,167.468,177.81-37.274,199.066-261.115,575.231-10.6C326.514,143.439,294.285-27.892,457.863-194.422,781.607-524.007,1495.31,803.451,1754.173,399.623c277.634-433.082,542.27-343.437,792.876-119.174l-.32,1c-249.779-222.418-513.493-309.78-790.1,121.691C1497.747,806.977,784.059-520.477,460.3-190.9,296.741-24.368,328.989,146.967-650.444-505.291c-376.163-250.521-397.412-26.678-575.241,10.589-122.35,25.652-404.708-79.38-671.3-168.532l.793-2.461Z" fill="#0ca1a5" fill-rule="evenodd"/><path d="M-1891.12-681.35C-1635.731-594.1-1373.585-498.729-1256.6-522.8c178.475-36.752,200.6-261.166,576.979-8.521C300.3,126.465,268.6-45.5,433.26-211.91,759.166-541.29,1470.11,792.721,1731.247,388.641,2017.878-54.9,2288.862,50.677,2544.573,288.118l-.322,1c-254.906-235.61-524.957-338.86-810.565,103.049C1472.56,796.275,761.635-537.74,435.72-208.364,271.05-41.946,302.763,130.015-677.164-527.784c-376.364-252.638-398.493-28.222-577,8.527-117.456,24.19-381.323-72.109-637.744-159.645l.791-2.448Z" fill="#0ca1a5" fill-rule="evenodd"/><path d="M-1885.556-698.641c244.352,84.917,488.44,171.908,600.474,149.311,179.184-36.145,202.28-261.153,578.789-6.232C273.976,108.179,242.877-64.445,408.7-230.715,736.944-559.783,1444.682,781.176,1708.25,376.908,2004.16-77,2281.349,45.426,2542,296.073l-.3.932C2281.853,48.137,2005.58-71.838,1710.688,380.483,1447.138,784.74,739.4-556.2,411.158-227.127,245.332-60.872,276.425,111.741-703.851-551.993c-376.494-254.931-399.59-29.9-578.783,6.237-112.506,22.687-358.3-65.156-603.712-150.437l.79-2.448Z" fill="#0ca1a5" fill-rule="evenodd"/></g><g transform="translate(-7669 18644)" opacity="0.1"><path d="M2132.42,1300.927C1571,1493.718,1038.045,1666.056,981.408,1259.581,679.492-907.89-1764.092,1894.9-2235.424,803.443c-118.052-273.407-879.407-207.289-1956.293-3.916v2.586c1073.427-202.408,1831.987-267.716,1949.8,5.132C-1770.586,1898.7,673.029-904.089,974.935,1263.382c56.838,408.039,593.69,232.805,1157.485,39.107v-1.562Z" fill="#0ca1a5" fill-rule="evenodd"/><path d="M2132.41,1320.587c-562.338,191.971-1098.65,366.672-1154.467-40.053C682-875.767-1753.925,1906.917-2220.48,820.441c-117.826-274.345-886.127-206.99-1971.237-3.086v2.6c1081.638-202.948,1847.194-269.53,1964.769,4.254C-1760.373,1910.679,675.548-872,971.471,1284.3c56.049,408.309,596.256,230.674,1160.939,37.873v-1.582Z" fill="#0ca1a5" fill-rule="evenodd"/><path d="M2132.42,1340.439c-563.2,191.064-1102.748,368.062-1157.766-38.934-289.933-2145.176-2718.3,617.412-3180.138-464.1C-2323,562.169-3098.556,630.825-4191.717,835.133v2.518c1089.8-203.392,1862.5-271.229,1979.8,3.473C-1750.095,1922.659,678.268-839.949,968.21,1305.249c55.238,408.512,598.7,228.637,1164.21,36.764v-1.574Z" fill="#0ca1a5" fill-rule="evenodd"/><path d="M2132.42,1360.505c-563.951,190.041-1106.677,369.2-1160.844-37.959C687.664-811.645-1733.333,1930.976-2190.417,854.321c-117.227-276.11-900.156-206.152-2001.3-1.545v2.511c1097.811-203.7,1877.9-272.859,1994.9,2.758,457.1,1076.636,2878.071-1665.976,3161.975,468.206,54.379,408.723,601.023,226.648,1167.258,35.807v-1.553Z" fill="#0ca1a5" fill-rule="evenodd"/><path d="M2132.42,1380.763c-564.6,188.961-1110.457,370.185-1163.746-37.119-277.865-2123.291-2691.584,599.4-3143.936-472.4-116.937-277.055-907.223-205.823-2016.475-.993v2.479c1105.919-203.942,1893.388-274.344,2010.089,2.17C-1729.311,1946.69,684.432-775.981,962.307,1347.31c53.48,408.838,603.24,224.711,1170.113,35v-1.543Z" fill="#0ca1a5" fill-rule="evenodd"/><path d="M2132.41,1401.216C1567.234,1589,1018.375,1772.171,965.963,1364.769,694.215-747.716-1712.463,1955.112-2160.043,888.093c-116.6-277.97-914.252-205.581-2031.674-.567v2.488c1114.06-204.135,1908.952-275.723,2025.32,1.717C-1718.807,1958.767,687.857-744.07,959.625,1368.4c52.6,408.945,605.391,222.861,1172.785,34.361v-1.541Z" fill="#0ca1a5" fill-rule="evenodd"/><path d="M2132.42,1421.878c-565.656,186.5-1117.461,371.516-1168.936-35.943C697.832-715.824-1701.9,1967.228-2144.739,904.926c-116.286-278.925-921.318-205.436-2047-.327v2.451c1122.332-204.232,1924.61-276.939,2040.669,1.486C-1708.232,1970.837,691.5-712.216,957.156,1389.542c51.7,408.984,607.409,221.074,1175.264,33.84v-1.5Z" fill="#0ca1a5" fill-rule="evenodd"/><path d="M2132.42,1442.7c-566.043,185.207-1120.664,371.92-1171.242-35.539C701.662-683.99-1691.293,1979.355-2129.391,921.723c-115.915-279.882-928.341-205.369-2062.326-.231v2.439c1130.672-204.261,1940.31-278,2056.036,1.361,438.088,1057.633,2831.063-1605.711,3090.56,485.434,50.762,408.984,609.309,219.359,1177.541,33.494V1442.7Z" fill="#0ca1a5" fill-rule="evenodd"/><path d="M2132.42,1463.745c-566.361,183.789-1123.732,372.1-1173.3-35.328C705.771-652.212-1680.609,1991.509-2113.922,938.48c-115.592-280.818-935.625-205.217-2077.795-.2v2.382C-3052.783,736.5-2235.564,661.694-2120.222,942.03c433.342,1053,2819.693-1590.713,3073.036,489.94,49.8,408.924,611.083,217.717,1179.606,33.279v-1.5Z" fill="#0ca1a5" fill-rule="evenodd"/><path d="M2132.41,1484.968c-566.584,182.312-1126.576,372.094-1175.2-35.25C710.074-620.494-1669.84,2003.685-2098.425,955.226c-115.186-281.763-942.974-205.109-2093.292-.327v2.392c1147.085-203.954,1972.067-279.8,2087.037,1.436,428.594,1048.458,2808.492-1575.71,3055.633,494.5,48.831,408.839,612.752,216.166,1181.457,33.222v-1.484Z" fill="#0ca1a5" fill-rule="evenodd"/><path d="M2132.42,1506.374c-566.748,180.789-1129.249,371.92-1176.885-35.316-240.928-2059.891-2614.54,544.8-3038.375-499.135-114.8-282.726-950.331-205.068-2108.877-.6V973.7c1155.3-203.654,1988.08-280.518,2102.645,1.687C-1665.223,2019.329,708.375-585.362,949.3,1474.53c47.809,408.733,614.276,214.688,1183.116,33.34v-1.5Z" fill="#0ca1a5" fill-rule="evenodd"/><path d="M2132.42,1527.962c-566.834,179.18-1131.738,371.527-1178.342-35.518-234.7-2049.7-2602.163,535.627-3021.257-503.869-114.371-283.7-957.691-205.118-2124.538-1.033v2.365c1163.61-203.3,2004.161-281.059,2118.335,2.092C-1654.274,2031.515,713.18-553.806,947.855,1495.868c46.788,408.549,615.665,213.3,1184.565,33.58v-1.486Z" fill="#0ca1a5" fill-rule="evenodd"/><path d="M2132.42,1549.755c-566.8,177.51-1134.024,370.937-1179.6-35.887C724.389-525.725-1637.069,2040.321-2051.444,1005.2c-113.968-284.686-965.061-205.264-2140.273-1.64v2.353c1172-202.84,2020.353-281.491,2134.084,2.674,414.362,1035.145,2775.848-1530.912,3004.274,508.7,45.744,408.309,616.919,211.959,1185.779,33.957v-1.486Z" fill="#0ca1a5" fill-rule="evenodd"/><path d="M2132.42,1571.749C1565.711,1747.523,996.311,1941.9,951.791,1535.314c-222.154-2029.571-2577.8,517.259-2987.43-513.534-113.513-285.661-972.382-205.507-2156.078-2.424v2.327c1180.453-202.285,2036.6-281.7,2149.919,3.482C-1632.158,2055.948,723.473-490.891,945.638,1538.7c44.682,408.039,618.067,210.772,1186.782,34.516v-1.467Z" fill="#0ca1a5" fill-rule="evenodd"/><path d="M2132.42,1593.909c-566.545,173.969-1138.019,369.17-1181.438-37.094-215.865-2019.692-2565.848,508.03-2970.747-518.484C-2132.82,751.7-2999.8,832.664-4191.737,1035.044v2.3c1188.8-201.618,2052.98-281.84,2165.866,4.32C-1620.974,2068.2,729-459.547,944.847,1560.155c43.573,407.731,619.05,209.633,1187.573,35.211v-1.457Z" fill="#0ca1a5" fill-rule="evenodd"/><path d="M2132.41,1616.249c-566.265,172.117-1139.7,368-1182.026-37.9-209.529-2009.921-2554,498.8-2954.165-523.51-112.6-287.608-987.74-205.863-2187.936-4.3v2.275c1197.062-200.806,2069.426-281.8,2181.816,5.344,400.167,1022.307,2744.641-1486.419,2954.178,523.5,42.494,407.371,619.891,208.6,1188.133,36.032v-1.44Z" fill="#0ca1a5" fill-rule="evenodd"/><path d="M2132.42,1638.757c-565.945,170.217-1141.2,366.652-1182.384-38.838-203.2-2000.256-2542.33,489.562-2937.793-528.6-112.081-288.6-995.414-206.191-2203.96-5.519v2.277c1205.428-199.947,2085.951-281.616,2197.868,6.512C-1598.371,2092.753,740.74-397.056,943.931,1603.179c41.354,406.947,620.585,207.656,1188.489,37.013v-1.435Z" fill="#0ca1a5" fill-rule="evenodd"/><path d="M2132.42,1661.435c-565.533,168.3-1142.494,365.091-1182.549-39.938C753.039-369.176-1580.9,2101.819-1971.633,1087.733c-111.627-289.6-1003.1-206.574-2220.084-6.877v2.247c1213.87-198.975,2102.6-281.241,2214.006,7.89,390.732,1014.069,2724.7-1456.928,2921.534,533.766,40.2,406.474,621.136,206.787,1188.6,38.135v-1.459Z" fill="#0ca1a5" fill-rule="evenodd"/><path d="M2132.42,1684.317C1567.361,1850.6,988.874,2047.663,949.969,1643.106,759.494-338.105-1569.416,2114.2-1955.456,1104.153c-111.1-290.658-1010.777-207.115-2236.261-8.48v2.228c1222.369-197.893,2119.31-280.72,2230.223,9.444C-1575.45,2117.407,753.455-334.893,943.931,1646.329c39.049,405.985,621.52,206.055,1188.489,39.436v-1.448Z" fill="#0ca1a5" fill-rule="evenodd"/><path d="M2132.42,1707.382c-564.5,164.217-1144.395,361.389-1182.113-42.609-184.1-1971.884-2508.161,461.81-2889.517-544.28-110.556-291.678-1018.519-207.647-2252.507-10.205v2.19c1230.951-196.745,2136.11-280.016,2246.513,11.2,381.339,1006.07,2705.4-1427.612,2889.481,544.269,37.854,405.416,621.772,205.428,1188.143,40.846v-1.41Z" fill="#0ca1a5" fill-rule="evenodd"/><path d="M2132.42,1730.593c-563.854,162.123-1145.031,359.236-1181.565-44.125C773.193-276.212-1546.186,2139-1922.863,1136.825c-110-292.7-1026.526-208.166-2268.854-12.068v2.182c1239.29-195.425,2153.024-279.206,2262.859,13.04C-1552.183,2142.134,767.191-273.077,944.865,1689.6c36.639,404.808,621.83,204.878,1187.555,42.408v-1.418Z" fill="#0ca1a5" fill-rule="evenodd"/><path d="M2132.42,1753.968c-563.139,160.019-1145.456,356.92-1180.774-45.793C780.389-245.4-1534.451,2151.433-1906.42,1153.128c-109.476-293.733-1034.566-208.8-2285.3-14.15v2.179c1247.711-194.015,2170.023-278.194,2279.286,15.069,372,998.314,2686.838-1398.509,2858.1,555.037,35.451,404.168,621.752,204.451,1186.754,44.113v-1.408Z" fill="#0ca1a5" fill-rule="evenodd"/><path d="M2132.42,1777.505C1570.043,1935.376,986.781,2131.927,952.7,1729.89,787.846-214.666-1522.614,2163.925-1889.94,1169.364-1998.816,874.58-2932.5,959.856-4191.717,1152.993v2.16c1256.194-192.5,2187.1-277.024,2295.825,17.278,367.326,994.552,2677.786-1384.018,2842.628,560.535,34.2,403.457,621.5,204.088,1185.684,45.937v-1.4Z" fill="#0ca1a5" fill-rule="evenodd"/><path d="M2132.42,1801.189c-561.51,155.707-1145.6,351.718-1178.438-49.536C795.554-184.056-1510.682,2176.4-1873.371,1185.571c-108.279-295.846-1050.59-210.328-2318.366-18.812v2.142c1264.776-190.889,2204.3-275.665,2312.414,19.709C-1516.634,2179.437,789.619-181,948.03,1754.692c32.963,402.684,621.068,203.834,1184.39,47.9v-1.4Z" fill="#0ca1a5" fill-rule="evenodd"/><path d="M2132.42,1825.034c-560.6,153.481-1145.32,348.836-1176.9-51.619-151.995-1926.949-2454.182,415.5-2812.237-571.7-107.7-296.928-1058.6-211.245-2335-21.436v2.141c1273.376-189.19,2221.541-274.132,2329.069,22.324C-1504.6,2191.921,797.607-150.5,949.582,1776.435c31.689,401.865,620.461,203.681,1182.838,49.978v-1.379Z" fill="#0ca1a5" fill-rule="evenodd"/><path d="M2132.41,1849.017c-559.58,151.252-1144.83,345.806-1175.12-53.809C811.759-123.107-1486.578,2201.452-1840,1217.858c-107.06-298-1066.839-212.179-2351.714-24.214v2.085C-2909.8,1008.39-1952.807,923.3-1845.9,1220.839c353.422,983.582,2651.748-1340.976,2797.269,577.35,30.444,401.015,619.687,203.671,1181.042,52.216v-1.388Z" fill="#0ca1a5" fill-rule="evenodd"/><path d="M2132.41,1873.144c-558.51,148.994-1144.077,342.574-1173.094-56.125-139.066-1909.807-2433.687,396.992-2782.5-583.08-106.433-299.058-1075.209-213.155-2368.529-27.184v2.111c1290.4-185.381,2256.381-270.589,2362.649,28.026,348.813,980.06,2643.443-1326.728,2782.491,583.1,29.151,400.08,618.712,203.711,1178.987,54.526v-1.371Z" fill="#0ca1a5" fill-rule="evenodd"/><path d="M2132.42,1897.425c-557.4,146.7-1143.074,339.131-1170.827-58.567-132.615-1901.442-2423.67,387.733-2767.88-588.884-105.8-300.141-1083.571-214.217-2385.43-30.311v2.082c1298.917-183.316,2273.934-268.565,2379.575,31.141C-1467.933,2229.493,823.124-59.67,955.728,1841.773c27.831,399.115,617.547,203.923,1176.692,57.011v-1.359Z" fill="#0ca1a5" fill-rule="evenodd"/><path d="M2132.42,1921.821c-556.176,144.42-1141.839,335.563-1168.271-61.121C838-32.495-1449.671,2239.21-1789.3,1265.978c-105.16-301.26-1091.975-215.385-2402.413-33.678v2.064c1307.522-181.148,2291.567-266.308,2396.527,34.5C-1455.525,2242.073,832.144-29.592,958.323,1863.593c26.5,398.072,616.157,204.2,1174.1,59.607v-1.379Z" fill="#0ca1a5" fill-rule="evenodd"/><path d="M2132.42,1946.362c-554.91,142.116-1140.344,331.821-1165.463-63.812C847.269-2.514-1437.189,2251.847-1772.269,1281.942c-104.474-302.388-1100.351-216.666-2419.448-37.238v2.065c1316.2-178.87,2309.3-263.924,2413.609,38.029C-1443.015,2254.7,841.424.352,961.141,1885.4c25.207,397.014,614.632,204.61,1171.279,62.328v-1.369Z" fill="#0ca1a5" fill-rule="evenodd"/><path d="M2132.42,1971.028c-553.58,139.811-1138.607,327.885-1162.385-66.621C856.8,27.343-1424.6,2264.513-1755.145,1297.86c-103.785-303.527-1108.816-218-2436.572-40.98v2.045c1324.913-176.516,2327.129-261.311,2430.775,41.732C-1430.4,2267.329,850.983,30.169,964.235,1907.245c23.868,395.873,612.87,205.09,1168.185,65.145v-1.362Z" fill="#0ca1a5" fill-rule="evenodd"/><path d="M2132.42,1995.812c-552.2,137.486-1136.563,323.773-1159.029-69.543C866.592,57.074-1411.9,2277.2-1737.94,1313.72c-103.089-304.637-1117.5-219.35-2453.777-44.83v2.015c1333.417-174,2345.053-258.59,2447.98,45.612C-1417.7,2279.966,860.795,59.872,967.594,1929.075c22.544,394.688,610.937,205.707,1164.826,68.1v-1.361Z" fill="#0ca1a5" fill-rule="evenodd"/><path d="M2132.42,2020.72c-550.725,135.15-1134.3,319.509-1155.42-72.572C876.654,86.691-1399.1,2289.894-1720.652,1329.54c-102.368-305.766-1126.225-220.8-2471.085-48.91v2.008c1342.019-171.368,2363.1-255.641,2465.315,49.689C-1404.885,2292.651,870.894,89.459,971.211,1950.915c21.213,393.434,608.814,206.432,1161.209,71.145v-1.34Z" fill="#0ca1a5" fill-rule="evenodd"/><path d="M2132.42,2045.733c-549.18,132.8-1131.749,315.073-1151.533-75.687C887,116.171-1386.224,2302.626-1703.265,1345.341c-101.661-306.922-1134.979-222.35-2488.472-53.211v2.006c1350.657-168.664,2381.191-252.543,2482.714,53.955C-1391.982,2305.376,881.236,118.91,975.129,1972.765c19.851,392.132,606.431,207.222,1157.291,74.3v-1.332Z" fill="#0ca1a5" fill-rule="evenodd"/><path d="M2132.42,2070.825c-547.588,130.49-1128.922,310.49-1147.356-78.912-87.458-1846.4-2358.275,323.5-2670.874-630.838-100.928-308.09-1143.752-224-2505.907-57.709v2.018c1359.34-165.848,2399.374-249.272,2500.163,58.4C-1378.965,2318.108,891.866,148.216,979.3,1994.616c18.5,390.76,603.877,208.137,1153.115,77.539v-1.33Z" fill="#0ca1a5" fill-rule="evenodd"/><path d="M2132.41,2096.032c-545.9,128.166-1125.8,305.762-1142.881-82.24C908.5,174.706-1360.082,2328.2-1668.271,1376.78c-100.191-309.267-1152.531-225.763-2523.446-62.4v2C-2823.648,1153.466-1774.058,1070.6-1674,1379.45-1365.825,2330.862,902.777,177.389,983.78,2016.476c17.143,389.341,601.052,209.13,1148.63,80.879v-1.323Z" fill="#0ca1a5" fill-rule="evenodd"/><path d="M2132.41,2121.306c-544.164,125.851-1122.418,300.883-1138.153-85.635-74.609-1831.887-2341.132,305.35-2644.894-643.225-99.444-310.463-1161.571-227.548-2541.08-67.248v1.989c1376.751-159.877,2436.06-242.155,2535.35,67.892,303.777,948.574,2570.3-1188.673,2644.914,643.236,15.771,387.858,598.051,210.26,1143.863,84.313v-1.322Z" fill="#0ca1a5" fill-rule="evenodd"/><path d="M2132.42,2146.677c-542.361,123.506-1118.754,295.828-1133.137-89.135-68.183-1824.868-2332.82,296.309-2632.233-649.5-98.661-311.649-1170.632-229.4-2558.767-72.254v1.969c1385.376-156.723,2454.525-238.324,2553.067,72.91C-1339.244,2356.476,925.379,235.3,993.582,2060.146c14.441,386.343,594.828,211.457,1138.838,87.843v-1.312Z" fill="#0ca1a5" fill-rule="evenodd"/><path d="M2132.42,2172.126c-540.488,121.211-1114.77,290.646-1127.811-92.734-61.8-1817.961-2324.72,287.357-2619.769-655.778-97.886-312.865-1179.765-231.357-2576.557-77.482v1.969c1394.033-153.473,2473.1-234.34,2570.855,78.089C-1325.783,2369.323,937.12,264.016,998.907,2081.978c13.08,384.72,591.374,212.738,1133.513,91.461v-1.313Z" fill="#0ca1a5" fill-rule="evenodd"/><path d="M2132.42,2197.642c-538.529,118.9-1110.506,285.3-1122.188-96.393-55.422-1811.2-2316.774,278.389-2607.522-662.113-97.109-314.069-1188.915-233.405-2594.447-82.9v1.967c1402.784-150.131,2491.8-230.17,2588.759,83.484C-1312.215,2382.2,949.12,292.6,1004.551,2103.8c11.711,383.064,587.707,214.119,1127.869,95.176v-1.33Z" fill="#0ca1a5" fill-rule="evenodd"/><path d="M2132.41,2223.224c-536.494,116.619-1105.924,279.853-1116.254-100.162-49.084-1804.561-2309,269.521-2595.478-668.461-96.321-315.315-1198.11-235.537-2612.395-88.481v1.949C-2780.17,1221.4-1681.18,1142.237-1585.01,1457.128c286.475,937.953,2546.43-1136.1,2595.5,668.451,10.381,381.356,583.774,215.635,1121.918,98.938v-1.293Z" fill="#0ca1a5" fill-rule="evenodd"/><path d="M2132.42,2248.847c-534.41,114.322-1101.042,274.236-1110.033-103.965C979.623,346.766-1279.082,2405.509-1561.3,1470.034c-95.5-316.568-1207.4-237.754-2630.439-94.267v1.949c1420.364-143.158,2529.418-221.336,2624.781,94.807,282.231,935.5,2540.925-1123.259,2583.681,674.857,9.018,379.533,579.634,217.141,1115.695,102.75v-1.283Z" fill="#0ca1a5" fill-rule="evenodd"/><path d="M2132.42,2274.507c-532.24,112.076-1095.842,268.535-1103.493-107.822-36.445-1791.808-2294.08,251.828-2572.089-681.293-94.7-317.8-1216.875-239.993-2648.555-100.153v1.92c1429-139.5,2548.334-216.676,2642.907,100.7C-1270.8,2420.981,986.838,377.337,1023.283,2169.136c7.67,377.709,575.246,218.806,1109.137,106.672v-1.3Z" fill="#0ca1a5" fill-rule="evenodd"/><path d="M2132.42,2300.224c-529.985,109.81-1090.326,262.672-1096.645-111.778-30.183-1785.65-2286.881,243.08-2560.735-687.707-93.876-319.066-1226.376-242.336-2666.777-106.267v1.92C-2754,1260.622-1624.33,1184.528-1530.578,1503.161c273.823,930.8,2530.555-1097.915,2560.73,687.736,6.33,375.77,570.625,220.5,1102.268,110.61v-1.283Z" fill="#0ca1a5" fill-rule="evenodd"/><path d="M2132.42,2325.962c-527.67,107.582-1084.479,256.719-1089.486-115.772C1019.01,430.558-1236.941,2444.569-1506.66,1516.03c-93.057-320.359-1235.917-244.8-2685.057-112.539v1.891c1446.457-131.91,2586.521-206.895,2679.438,113.06C-1242.589,2446.979,1013.4,432.96,1037.31,2212.593c5.036,373.822,565.792,222.291,1095.11,114.662v-1.293Z" fill="#0ca1a5" fill-rule="evenodd"/><path d="M2132.42,2351.747c-525.236,105.324-1078.3,250.594-1082-119.84-17.7-1773.8-2273.082,225.742-2538.691-700.634-92.229-321.672-1245.507-247.325-2703.446-119.014v1.9c1455.276-128.012,2605.723-201.752,2697.84,119.5,265.595,926.377,2520.991-1073.173,2538.711,700.633,3.7,371.758,560.67,224.115,1087.586,118.713v-1.264Z" fill="#0ca1a5" fill-rule="evenodd"/><path d="M2132.42,2377.552c-522.73,103.115-1071.773,244.353-1074.186-123.971-11.527-1768.094-2266.514,217.17-2528.052-707.105-91.384-322.993-1255.13-249.948-2721.9-125.62v1.879c1464.108-124.027,2625.036-196.494,2716.3,126.075,261.547,924.283,2516.515-1060.959,2528.061,707.117,2.393,369.654,555.383,226.062,1079.772,122.859v-1.234Z" fill="#0ca1a5" fill-rule="evenodd"/><path d="M2132.41,2403.349c-520.125,100.914-1064.9,238.033-1066.035-128.12-5.393-1762.568-2260.08,208.651-2517.6-713.619-90.573-324.3-1265-252.58-2740.488-132.363v1.871c1472.891-119.937,2644.446-191.062,2734.883,132.819C-1199.319,2486.2,1055.408,514.986,1060.8,2277.546c1.111,367.492,549.8,228.049,1071.611,127.047v-1.244Z" fill="#0ca1a5" fill-rule="evenodd"/><path d="M2132.42,2429.124c-517.443,98.727-1057.69,231.629-1057.545-132.307.693-1757.192-2253.916,200.231-2507.467-720.109-89.7-325.637-1274.9-255.31-2759.125-139.25v1.871c1481.626-115.8,2663.955-185.535,2753.546,139.676C-1184.615,2499.343,1070,541.94,1069.279,2299.114c-.154,365.246,544,230.076,1063.141,131.264v-1.254Z" fill="#0ca1a5" fill-rule="evenodd"/><path d="M2132.41,2454.909c-514.637,96.555-1050.1,225.088-1048.726-136.558,6.74-1751.967-2247.909,191.892-2497.532-726.594-88.871-326.977-1284.86-258.108-2777.869-146.293v1.844c1490.4-111.567,2683.52-179.836,2772.279,146.707,249.638,918.486,2504.3-1025.334,2497.553,726.623-1.408,362.929,537.951,232.158,1054.295,135.515v-1.244Z" fill="#0ca1a5" fill-rule="evenodd"/><path d="M2132.42,2480.687c-511.762,94.365-1042.188,218.429-1039.582-140.834,12.762-1746.9-2242.118,183.6-2487.87-733.106-88.012-328.326-1294.868-260.992-2796.685-153.478v1.851c1499.237-107.281,2703.208-174.047,2791.119,153.875,245.742,916.7,2500.641-1013.786,2487.879,733.125-2.623,360.567,531.651,234.289,1045.139,139.781v-1.214Z" fill="#0ca1a5" fill-rule="evenodd"/><path d="M2132.42,2506.415c-508.772,92.213-1033.9,211.717-1030.063-145.1,18.706-1742.05-2236.541,175.377-2478.481-739.615-87.173-329.709-1304.906-263.955-2815.593-160.793v1.852c1508.115-102.951,2722.965-168.133,2810.031,161.158,241.936,915.014,2497.211-1002.413,2478.5,739.617-3.86,358.117,525.111,236.442,1035.607,144.094v-1.215Z" fill="#0ca1a5" fill-rule="evenodd"/><path d="M2132.41,2532.1C1626.775,2622.165,1107.2,2737,1112.227,2382.7c24.6-1737.342-2231.188,167.275-2469.341-746.1-86.329-331.114-1315.1-266.973-2834.6-168.221v1.834C-2674.722,1371.7-1448.91,1308.1-1362.677,1638.8-1124.5,2552.189,1131.27,647.572,1106.66,2384.9c-5.025,355.588,518.379,238.623,1025.75,148.407V2532.1Z" fill="#0ca1a5" fill-rule="evenodd"/><path d="M2132.42,2557.743c-502.414,87.912-1016.143,198-1009.967-153.728C1152.879,671.245-1103.574,2563.3-1338.02,1651.46c-85.485-332.494-1325.39-270.031-2853.7-175.762v1.832c1525.764-94.066,2762.773-156,2848.147,176.1,234.459,911.84,2490.922-980.207,2460.467,752.57-6.184,353.006,511.375,240.813,1015.523,152.748v-1.207Z" fill="#0ca1a5" fill-rule="evenodd"/><path d="M2132.42,2583.347c-499.037,85.789-1006.7,191.015-999.385-158.063,36.213-1728.418-2221.068,151.379-2451.881-759.035-84.636-333.883-1335.753-273.119-2872.871-183.394v1.832c1534.59-89.569,2782.795-149.786,2867.347,183.712,230.78,910.395,2488.1-969.373,2451.856,759.047-7.359,350.34,504.121,243.049,1004.934,157.1v-1.2Z" fill="#0ca1a5" fill-rule="evenodd"/><path d="M2132.42,2608.872c-495.545,83.656-996.857,183.936-988.436-162.4C1185.908,722.248-1072.377,2590.032-1299.548,1681c-83.83-335.332-1346.185-276.295-2892.169-191.133v1.822c1543.457-85,2802.912-143.476,2886.621,191.45,227.2,909.033,2485.477-958.761,2443.543,765.482C1130,2796.231,1635.1,2693.9,2132.42,2610.06v-1.188Z" fill="#0ca1a5" fill-rule="evenodd"/><path d="M2132.42,2634.319c-491.9,81.516-986.623,176.817-977.121-166.732,47.578-1720.2-2211.826,135.865-2435.477-771.885-83-336.779-1356.675-279.535-2911.539-198.955v1.813c1552.336-80.416,2823.117-137.129,2905.988,199.244,223.656,907.76,2483.088-948.306,2435.483,771.894-9.522,344.815,488.955,247.526,982.666,165.8v-1.178Z" fill="#0ca1a5" fill-rule="evenodd"/><path d="M2132.42,2659.681c-488.117,79.375-975.98,169.58-965.42-171.075,53.147-1716.36-2207.532,128.274-2427.74-778.242-82.152-338.246-1367.18-282.814-2930.977-206.875v1.813c1561.288-75.783,2843.4-130.684,2925.455,207.127,220.211,906.545,2480.881-938.108,2427.746,778.261-10.6,341.957,480.987,249.791,970.936,170.178v-1.187Z" fill="#0ca1a5" fill-rule="evenodd"/><path d="M2132.42,2684.956c-484.17,77.242-964.906,162.307-953.332-175.406,58.652-1712.7-2203.49,120.814-2420.278-784.592-81.317-339.7-1377.88-286.1-2950.527-214.822v1.814c1570.178-71.164,2863.754-124.222,2945.019,215.074,216.766,905.395,2478.911-928.115,2420.258,784.59-11.605,339.006,472.817,251.983,958.86,174.518v-1.176Z" fill="#0ca1a5" fill-rule="evenodd"/><path d="M2132.42,2710.1c-480.043,75.09-953.4,154.994-940.857-179.711,64.044-1709.212-2199.653,113.494-2413.107-790.869-80.513-341.176-1388.641-289.452-2970.173-222.83v1.812c1579.048-66.514,2884.235-117.728,2964.664,223.043,213.454,904.383,2477.141-918.313,2413.106,790.9-12.6,335.969,464.433,254.172,946.367,178.842V2710.1Z" fill="#0ca1a5" fill-rule="evenodd"/><path d="M2132.41,2735.13c-475.777,72.937-941.457,147.594-927.988-183.984C1273.781,845.213-991.625,2657.415-1201.8,1753.995c-79.726-342.672-1399.5-292.8-2989.92-230.865v1.824c1587.951-61.846,2904.782-111.2,2984.411,231.059,210.175,903.437,2475.6-908.782,2406.218,797.138-13.523,332.862,455.838,256.354,933.5,183.164v-1.185Z" fill="#0ca1a5" fill-rule="evenodd"/><path d="M2132.41,2760.048c-471.293,70.758-929.107,140.137-914.725-188.258,74.608-1702.825-2192.659,99.217-2399.64-803.342-78.935-344.177-1410.4-296.175-3009.762-238.914v1.795c1596.918-57.176,2925.4-104.646,3004.235,239.125,207,902.541,2474.248-899.5,2399.65,803.334-14.432,329.668,447,258.484,920.242,187.436v-1.176Z" fill="#0ca1a5" fill-rule="evenodd"/><path d="M2132.42,2784.8c-466.652,68.6-916.3,132.642-901.065-192.483,79.721-1699.93-2189.5,92.3-2393.388-809.457-78.169-345.7-1421.377-299.6-3029.684-247v1.785c1605.865-52.519,2946.119-98.126,3024.175,247.178,203.894,901.76,2473.13-890.434,2393.4,809.469-15.3,326.387,437.954,260.578,906.565,191.68V2784.8Z" fill="#0ca1a5" fill-rule="evenodd"/><path d="M2132.41,2809.409c-461.779,66.389-903.043,125.1-886.99-196.687,84.775-1697.2-2186.563,85.537-2387.428-815.518-77.424-347.244-1432.383-303.033-3049.709-255.06v1.8c1614.886-47.9,2966.873-91.615,3044.2,255.2,200.865,901.065,2472.2-881.675,2387.455,815.536-16.139,323.05,428.71,262.595,892.47,195.888v-1.168Z" fill="#0ca1a5" fill-rule="evenodd"/><path d="M2132.41,2833.874c-456.695,64.141-889.334,117.486-872.472-200.855,89.667-1694.675-2183.9,78.939-2381.813-821.518-76.691-348.809-1443.578-306.43-3069.842-263.115v1.8c1623.862-43.278,2987.739-85.143,3064.315,263.258,197.914,900.439,2471.529-873.147,2381.812,821.509-16.9,319.635,419.287,264.58,878,200.092v-1.166Z" fill="#0ca1a5" fill-rule="evenodd"/><path d="M2132.42,2858.126c-451.41,61.92-875.162,109.867-857.568-204.947,94.47-1692.339-2181.458,72.488-2376.526-827.43-75.939-350.35-1454.8-309.853-3090.063-271.113v1.8c1632.842-38.7,3008.712-78.717,3084.585,271.228,195.037,899.936,2470.994-864.89,2376.494,827.43-17.652,316.1,409.613,266.473,863.078,204.2v-1.166Z" fill="#0ca1a5" fill-rule="evenodd"/><path d="M2132.41,2882.2c-445.844,59.615-860.472,102.2-842.211-209.037,99.18-1690.177-2179.258,66.256-2371.565-833.227-75.228-351.9-1466.12-313.259-3110.351-279.052v1.775c1641.845-34.16,3029.7-72.351,3104.87,279.176C-894.578,2741.321,1383.9,984.9,1284.691,2675.089c-18.347,312.486,399.772,268.285,847.719,208.262V2882.2Z" fill="#0ca1a5" fill-rule="evenodd"/><path d="M2132.41,2906.06c-440.076,57.293-845.336,94.49-826.437-213,103.761-1688.268-2177.3,60.156-2366.928-838.969-74.549-353.514-1477.5-316.645-3130.762-286.932v1.774c1650.878-29.694,3050.791-66.071,3125.272,287.048,189.629,899.127,2470.67-849.279,2366.927,838.979-18.982,308.773,389.709,269.973,831.928,212.268v-1.168Z" fill="#0ca1a5" fill-rule="evenodd"/><path d="M2132.42,2929.7c-434.047,54.977-829.717,86.791-810.23-216.916,108.187-1686.543-2175.586,54.254-2362.626-844.594-73.9-355.134-1488.958-320.021-3151.3-294.726v1.793c1659.971-25.313,3071.966-59.944,3145.792,294.785,187.07,898.867,2470.824-841.93,2362.625,844.613-19.563,304.981,379.543,271.6,815.74,216.211V2929.7Z" fill="#0ca1a5" fill-rule="evenodd"/><path d="M2132.42,2953.1c-427.738,52.576-813.588,79.064-793.563-220.774,112.483-1684.97-2174.107,48.59-2358.689-850.093-73.266-356.745-1500.459-323.338-3171.885-302.377v1.8c1669.068-20.963,3093.188-53.935,3166.4,302.434,184.571,898.664,2471.17-834.9,2358.672,850.094-20.1,301.113,369.14,273.129,799.068,220.087V2953.1Z" fill="#0ca1a5" fill-rule="evenodd"/><path d="M2132.42,2976.271c-421.148,50.1-796.94,71.277-776.44-224.549,116.631-1683.688-2172.891,43.092-2355.09-855.5-72.669-358.377-1512.079-326.59-3192.607-309.883v1.777c1678.183-16.711,3114.488-48.043,3187.1,309.969,182.217,898.565,2471.748-828.213,2355.09,855.473-20.6,297.1,358.6,274.48,781.947,223.883v-1.166Z" fill="#0ca1a5" fill-rule="evenodd"/><path d="M2132.42,2999.181c-414.252,47.634-779.766,63.474-758.861-228.272C1494.2,1088.351-798.361,2808.763-978.3,1910.159c-72.091-360-1523.8-329.8-3213.415-317.263v1.775c1687.27-12.57,3135.864-42.3,3207.908,317.32,179.959,898.586,2472.52-821.808,2351.868,860.75-21.02,293.01,347.853,275.754,764.361,227.617v-1.177Z" fill="#0ca1a5" fill-rule="evenodd"/><path d="M2132.41,3021.763c-407.015,45.078-762.084,55.681-740.814-231.85,124.482-1681.64-2171.185,32.828-2348.984-865.844-71.569-361.668-1535.6-332.988-3234.329-324.478v1.783c1696.4-8.537,3157.338-36.752,3228.821,324.508,177.809,898.654,2473.5-815.787,2349,865.853-21.379,288.8,336.978,276.815,746.31,231.223v-1.2Z" fill="#0ca1a5" fill-rule="evenodd"/><path d="M2132.42,3044.065c-399.531,42.487-743.881,47.877-722.3-235.322,128.178-1680.957-2170.73,28-2346.5-870.832-71.048-363.314-1547.455-336.033-3255.33-331.463v1.8c1705.56-4.64,3178.84-31.459,3249.822,331.473,175.784,898.836,2474.672-810.117,2346.514,870.822-21.7,284.5,325.938,277.76,727.8,234.734v-1.207Z" fill="#0ca1a5" fill-rule="evenodd"/><path d="M2132.41,3066.042c-391.64,39.82-725.117,40.053-703.3-238.709,131.659-1680.465-2170.48,23.479-2344.384-875.617C-985.865,1586.7-2474.629,1612.7-4191.717,1613.491v1.805c1714.774-.879,3200.412-26.4,3270.94,338.225,173.9,899.085,2476.05-804.879,2344.39,875.617-21.935,280.052,314.754,278.529,708.8,238.148v-1.244Z" fill="#0ca1a5" fill-rule="evenodd"/><path d="M2132.42,3087.671c-383.43,37.1-705.844,32.228-683.8-241.953C1583.6,1165.507-721.948,2864.9-894.037,1965.472c-70.17-366.692-1571.335-341.9-3297.68-344.727v1.776c1724.01,2.787,3222.078-21.579,3292.161,344.728,172.1,899.434,2477.644-799.969,2342.658,880.246-22.131,275.522,303.468,279.08,689.318,241.428v-1.252Z" fill="#0ca1a5" fill-rule="evenodd"/><path d="M2132.42,3108.96c-374.873,34.295-685.99,24.416-663.832-245.076C1606.7,1183.72-702.26,2879.04-872.728,1979.181c-69.775-368.41-1583.378-344.641-3318.989-350.959v1.793c1733.28,6.244,3243.764-17.084,3313.472,350.941,170.468,899.858,2479.438-795.453,2341.315,884.693-22.265,270.823,292.035,279.5,669.35,244.594v-1.283Z" fill="#0ca1a5" fill-rule="evenodd"/><path d="M2132.41,3129.854c-365.883,31.411-665.558,16.6-643.361-248.056C1630.1,1201.468-682.349,2893.22-851.3,1992.839c-69.427-370.125-1595.534-347.272-3340.414-356.861v1.775c1742.589,9.521,3265.518-12.889,3334.9,356.852,168.953,900.371,2481.416-791.372,2340.351,888.949-22.322,266,280.479,279.611,648.879,247.574v-1.274Z" fill="#0ca1a5" fill-rule="evenodd"/><path d="M2132.42,3150.345c-356.555,28.457-644.586,8.8-622.371-250.9,143.785-1680.7-2172.207,8-2339.819-892.99-69.149-371.836-1607.771-349.781-3361.947-362.467v1.793c1751.884,12.61,3287.338-9.009,3356.428,362.438C-667.7,2909.194,1648.3,1220.481,1504.522,2901.208c-22.323,261.031,268.787,279.563,627.9,250.459v-1.322Z" fill="#0ca1a5" fill-rule="evenodd"/><path d="M2132.42,3170.382c-346.793,25.428-623.018,1.021-600.857-253.537,146.263-1681.352-2173.308,4.851-2339.676-896.791-68.927-373.58-1620.106-352.147-3383.624-367.7v1.793C-2430.5,1669.616-882.509,1648.6-813.65,2021.79c166.377,901.645,2485.949-784.531,2339.664,896.82-22.244,255.881,257.049,279.178,606.406,253.092v-1.32Z" fill="#0ca1a5" fill-rule="evenodd"/><path d="M2132.42,3189.944c-336.576,22.313-600.84-6.715-578.824-255.976,148.521-1682.2-2174.659,2.035-2339.947-900.391-68.752-375.316-1632.471-354.3-3405.366-372.527v1.795c1770.6,18.117,3331.145-2.471,3399.829,372.451C-626.6,2937.739,1696.6,1253.5,1548.047,2935.7c-22.129,250.633,245.144,278.617,584.373,255.639v-1.4Z" fill="#0ca1a5" fill-rule="evenodd"/><path d="M2132.41,3209.034c-325.955,19.082-578.062-14.469-556.252-258.242,150.53-1683.264-2176.269-.453-2340.658-903.736-68.608-377.055-1644.916-356.276-3427.217-376.9v1.8c1780.037,20.5,3353.12.145,3421.679,376.822,164.382,903.274,2491.206-779.535,2340.632,903.746-21.938,245.162,233.2,277.682,561.816,257.9v-1.391Z" fill="#0ca1a5" fill-rule="evenodd"/><path d="M2132.42,3227.558c-314.832,15.791-554.709-22.129-533.158-260.25,152.322-1684.575-2178.129-2.6-2341.786-906.815-68.551-378.808-1657.4-358.029-3449.193-380.8v1.783c1789.5,22.679,3375.153,2.334,3443.656,380.758,163.627,904.228,2494.108-777.762,2341.758,906.814-21.658,239.51,221.141,276.465,538.723,259.969v-1.455Z" fill="#0ca1a5" fill-rule="evenodd"/><path d="M2132.42,3245.567c-303.324,12.407-530.746-29.769-509.514-262.052,153.846-1686.1-2180.281-4.362-2343.35-909.6-68.579-380.6-1669.978-359.592-3471.273-384.248v1.813C-2392.685,1716-794.5,1695.45-726,2075.638c163.077,905.242,2497.2-776.487,2343.34,909.593-21.338,233.7,209,274.932,515.08,261.793v-1.457Z" fill="#0ca1a5" fill-rule="evenodd"/><path d="M2132.41,3262.845c-291.2,8.877-506.088-37.315-485.32-263.483,155.092-1687.843-2182.644-5.748-2345.326-912.07-68.647-382.379-1682.641-360.9-3493.481-387.125v1.785C-2383.124,1728.065-772.371,1707.046-703.8,2089c162.7,906.35,2500.421-775.762,2345.329,912.092-20.916,227.623,196.872,272.935,490.885,263.3v-1.545Z" fill="#0ca1a5" fill-rule="evenodd"/><path d="M2132.41,3279.524c-278.629,5.3-480.871-44.808-460.555-264.648,156.036-1689.852-2185.319-6.744-2347.788-914.252-68.782-384.154-1695.356-361.967-3515.784-389.459v1.822c1818.152,27.369,3441.5,5.586,3510.2,389.373,162.49,907.5,2503.834-775.6,2347.8,914.233-20.443,221.334,184.6,270.638,466.131,264.582v-1.651Z" fill="#0ca1a5" fill-rule="evenodd"/><path d="M2132.41,3295.519c-265.566,1.611-454.99-52.209-435.222-265.508,156.691-1692.059-2188.243-7.332-2350.693-916.094-68.994-385.93-1708.194-362.738-3538.212-391.146v1.783c1827.785,28.3,3463.691,5.566,3532.626,391.1,162.443,908.782,2507.374-775.984,2350.693,916.094-19.9,214.758,172.339,267.813,440.808,265.412v-1.64Z" fill="#0ca1a5" fill-rule="evenodd"/><path d="M2132.41,3310.558c-251.857-2.161-428.431-59.385-409.3-265.8C1880.1,1350.222-468.346,3037.3-630.969,2127.19c-69.275-387.7-1721.074-363.228-3560.748-392.236v1.815c1837.426,28.871,3485.936,4.822,3555.162,392.158,162.633,910.115,2511.078-776.949,2354.057,917.551-19.254,207.925,160.061,264.455,414.908,265.845v-1.765Z" fill="#0ca1a5" fill-rule="evenodd"/><path d="M2132.41,3324.806c-237.668-6.059-401.238-66.475-382.812-265.7,157.019-1697.208-2194.877-7.148-2357.9-918.658-69.66-389.517-1734.033-363.4-3583.418-392.6v1.8c1847.151,29.074,3508.229,3.414,3577.812,392.517,163.03,911.531,2514.919-778.533,2357.928,918.68-18.6,200.777,147.682,260.6,388.387,265.853v-1.89Z" fill="#0ca1a5" fill-rule="evenodd"/><path d="M2132.42,3338.12c-222.918-10.025-373.406-73.394-355.725-265.1,156.674-1700.145-2198.6-6.368-2362.239-919.366-70.113-391.3-1747.018-363.218-3606.173-392.226v1.812C-2334.8,1792.11-661.2,1764.472-591.13,2155.388c163.62,913,2518.894-780.77,2362.2,919.365-17.808,193.35,135.317,256.2,361.35,265.4v-2.033Z" fill="#0ca1a5" fill-rule="evenodd"/><path d="M2132.42,3350.321c-207.561-14.027-344.861-80.039-328.027-263.828,155.947-1703.3-2202.558-5.1-2367.016-919.644-70.692-393.106-1760.132-362.68-3629.094-391.09v1.844c1866.714,28.234,3552.836-1.719,3623.479,390.992,164.439,914.549,2522.992-783.655,2367.006,919.634-16.969,185.42,123.005,250.94,333.652,264.139v-2.047Z" fill="#0ca1a5" fill-rule="evenodd"/><path d="M2132.42,3361.175c-191.479-18.088-315.623-86.291-299.725-261.67,154.9-1706.684-2206.783-3.326-2372.3-919.479-71.338-394.918-1773.295-361.753-3652.132-389.121v1.834c1876.6,27.211,3575.227-5.48,3646.516,389.024,165.5,916.181,2527.18-787.2,2372.311,919.488-16.072,177.078,110.678,244.855,305.33,262.133v-2.209Z" fill="#0ca1a5" fill-rule="evenodd"/><path d="M2132.41,3370.581c-174.789-22.17-285.719-92.09-270.756-258.555,153.373-1710.31-2211.3-.992-2378.1-918.841-72.11-396.713-1786.54-360.442-3675.274-386.258v1.834c1886.5,25.689,3597.6-10.139,3669.639,386.189,166.8,917.84,2531.482-791.488,2378.08,918.824-15.078,168.231,98.387,237.86,276.408,259.237v-2.43Z" fill="#0ca1a5" fill-rule="evenodd"/><path d="M2132.42,3378.354c-157.436-26.208-255.09-97.4-241.229-254.326,151.5-1714.17-2215.993,1.9-2384.357-917.705-72.969-398.5-1799.854-358.636-3698.551-382.445v1.822c1896.488,23.645,3620.006-15.715,3692.907,382.369,168.375,919.606,2535.87-796.455,2384.369,917.715-14.026,158.805,86.134,229.776,246.861,255.213v-2.643Z" fill="#0ca1a5" fill-rule="evenodd"/><path d="M2132.42,3384.114c-139.414-30.136-223.748-101.927-211.014-248.627,149.159-1718.279-2220.98,5.366-2391.16-916.054C-543.7,1819.142-2283,1863.015-4191.717,1841.763v1.851c1906.508,21.108,3642.426-22.3,3716.3,377.623,170.179,921.389,2540.319-802.214,2391.171,916.028-12.908,148.666,73.9,220.359,216.666,249.773v-2.924Z" fill="#0ca1a5" fill-rule="evenodd"/><path d="M2132.42,3387.423c-120.652-33.842-191.682-105.457-180.152-241.033,146.349-1722.582-2226.221,9.435-2398.493-913.819-75.032-402.1-1826.734-353.707-3745.492-371.9v1.861c1916.539,18.02,3664.884-29.857,3739.828,371.834,172.273,923.252,2544.824-808.775,2398.463,913.828-11.662,137.639,61.809,209.295,185.846,242.51v-3.281Z" fill="#0ca1a5" fill-rule="evenodd"/><path d="M2132.42,3387.577c-101.147-37.158-158.883-107.58-148.656-230.875,143.08-1727.146-2231.662,14.152-2406.306-911.021-76.259-403.869-1840.326-350.477-3769.195-365v1.84c1926.659,14.394,3687.352-38.491,3763.523,364.986,174.626,925.162,2549.394-816.125,2406.286,911-10.39,125.562,49.729,196.273,154.348,232.892v-3.82Z" fill="#0ca1a5" fill-rule="evenodd"/><path d="M2132.42,3383.245c-80.656-39.812-125.293-107.445-116.494-216.848,139.308-1731.912-2237.352,19.553-2414.669-907.566-77.579-405.656-1853.972-346.715-3792.974-357v1.861c1936.8,10.129,3709.77-48.281,3787.282,356.959,177.328,927.129,2553.978-824.324,2414.687,907.576-9.018,111.971,37.863,180.258,122.168,219.667v-4.651Z" fill="#0ca1a5" fill-rule="evenodd"/><path d="M2132.41,3373.2c-59.512-41.182-90.912-104.283-83.648-197.769,135-1736.9-2243.254,25.642-2423.543-903.465-79.074-407.432-1867.733-342.354-3816.936-347.739v1.872c1946.979,5.25,3732.257-59.317,3811.236,347.718,180.307,929.127,2558.547-833.441,2423.544,903.467-7.487,96.332,26.267,160.242,89.347,201.328V3373.2Z" fill="#0ca1a5" fill-rule="evenodd"/><path d="M2132.41,3352.319c-37.18-40.064-55.633-94.818-50.125-168.519C2212.42,1441.692-167.1,3216.261-350.684,2285.116c-80.7-409.166-1881.589-337.385-3841.053-337.2v1.871c1957.254-.318,3754.744-71.578,3835.351,337.2,183.579,931.153,2563.1-843.425,2432.97,898.682-5.789,77.252,14.971,133.551,55.826,174.047v-7.4Z" fill="#0ca1a5" fill-rule="evenodd"/><path d="M2132.42,3305.733c-13.256-31.775-19.1-69.437-15.918-114.3,124.723-1747.52-2255.719,40.08-2442.943-893.135-82.441-410.914-1895.511-331.744-3865.276-325.338v1.9c1967.532-6.55,3777.182-85.191,3859.555,325.327C-144.928,3233.4,2235.5,1445.8,2110.8,3193.341c-3.647,50.963,4.215,92.783,21.619,127.027v-14.635Z" fill="#0ca1a5" fill-rule="evenodd"/><path d="M2132.41,2835.388C1893.643,1722.935-126.56,3170-302.065,2311.511c-84.33-412.641-1909.55-325.424-3889.652-312.024v1.871c1977.883-13.525,3799.677-100.191,3883.932,312.092,177.008,865.826,2230.357-613.494,2440.195,552.944v-31.006Z" fill="#0ca1a5" fill-rule="evenodd"/><path d="M2132.42,2727.489C1776,1830.118-104.625,3153.45-277.5,2324.774c-86.454-414.375-1923.723-318.4-3914.234-297.234v1.891c1988.307-21.282,3822.145-116.688,3908.483,297.283,173.807,833.094,2073.7-509.01,2415.674,416.9v-16.129Z" fill="#0ca1a5" fill-rule="evenodd"/><path d="M2132.41,2659.827c-432.5-753.316-2213.168,485.2-2385.209-321.758-88.672-416.076-1937.974-310.568-3938.938-280.847v1.9c1998.755-29.85,3844.593-134.738,3933.21,280.922,172.811,810.734,1969.105-442.815,2390.937,332.736v-12.955Z" fill="#0ca1a5" fill-rule="evenodd"/><path d="M2132.42,2612.247C1644,1968.606-55.725,3140.718-227.9,2351.409c-91.115-417.732-1952.4-301.914-3963.818-262.787v1.9c2009.211-39.243,3867.011-154.444,3958.057,262.914,172.842,792.345,1885.246-392.133,2366.08,268.207v-9.4Z" fill="#0ca1a5" fill-rule="evenodd"/><path d="M2132.42,2574.636C1599.367,2022.253-29.92,3138.509-202.848,2364.849c-93.747-419.405-1966.933-292.434-3988.889-242.985v1.91C-2171.99,2074.2-302.258,1947.907-208.6,2366.894-35.07,3143.37,1605.435,2016.177,2132.42,2582.681v-8.045Z" fill="#0ca1a5" fill-rule="evenodd"/><path d="M2132.42,2544.036c-569.633-474.051-2135.85,593.778-2310.042-165.7-96.563-421.012-1981.587-282.012-4014.095-221.324v1.92c2030.29-60.776,3911.869-199.09,4008.307,221.5C-8.619,3142.491,1567.68,2064.8,2132.42,2551.05v-7.014Z" fill="#0ca1a5" fill-rule="evenodd"/><path d="M2132.42,2518.665C1532.285,2113.31,23.648,3138.276-152.212,2391.927c-99.592-422.586-1996.423-270.629-4039.5-197.719v1.928C-2150.854,2123.13-257.485,1971.868-158,2394.079c176.42,748.733,1694.279-285.265,2290.42,130.684v-6.1Z" fill="#0ca1a5" fill-rule="evenodd"/><path d="M2132.41,2497.153c-625.795-344.021-2081.094,642.483-2259.029-91.517-102.795-424.16-2011.42-258.264-4065.1-172.051v1.928c2051.473-86.26,3956.6-251.442,4059.33,172.31,178.465,736.262,1642.235-258.666,2264.8,94.713v-5.383Z" fill="#0ca1a5" fill-rule="evenodd"/><path d="M2132.41,2478.661c-647.49-288.572-2052.887,663.068-2233.2-59.2-106.269-425.662-2026.63-244.795-4090.923-144.229v1.94c2062.1-100.607,3978.953-280.75,4085.125,144.518,180.877,724.414,1594.106-235.112,2239,61.75v-4.776Z" fill="#0ca1a5" fill-rule="evenodd"/><path d="M2132.42,2462.493c-665.887-237.842-2024.13,681.92-2207.195-29.066-109.994-427.149-2041.993-230.2-4116.942-114.112v1.959c2072.745-116.119,4001.246-312.3,4111.142,114.42,183.589,713.03,1549.222-214.177,2212.995,31.034v-4.235Z" fill="#0ca1a5" fill-rule="evenodd"/><path d="M2132.41,2448.206c-681.35-191.074-1994.833,699.391-2180.947-.685-113.928-428.538-2057.576-214.313-4143.2-81.516v1.978c2083.4-132.845,4023.57-346.279,4137.391,81.9,186.656,702.043,1507.075-195.51,2186.756,2.248v-3.926Z" fill="#0ca1a5" fill-rule="evenodd"/><path d="M2132.42,2435.8c-694.229-147.826-1964.985,715.529-2154.478,26.027-118.172-429.928-2073.411-197.17-4169.659-46.351v1.966c2094.044-150.816,4045.786-382.736,4163.862,46.778,190.023,691.449,1467.359-178.629,2160.275-24.649V2435.8Z" fill="#0ca1a5" fill-rule="evenodd"/><path d="M2132.41,2424.87C1427.6,2317.349,197.851,3155.5,4.654,2476.325c-122.648-431.228-2089.5-178.619-4196.371-8.422v1.989c2104.7-170.18,4068.011-421.95,4190.573,8.9,193.726,681.041,1429.726-163.6,2133.554-50.539v-3.387Z" fill="#0ca1a5" fill-rule="evenodd"/><path d="M2132.42,2414.905c-713.34-69.621-1903.6,745.125-2100.765,76.16-127.481-432.5-2105.838-158.591-4223.372,32.4v2.016c2115.34-190.967,4090.219-464.008,4217.546-31.912,197.719,670.779,1393.917-150.239,2106.591-75.62v-3.039Z" fill="#0ca1a5" fill-rule="evenodd"/><path d="M2132.42,2405.722C1412.492,2371.89,260.36,3164.9,58.936,2506.038c-132.6-433.68-2122.506-136.908-4250.673,76.393v2c2125.976-213.27,4112.378-509.069,4244.856-75.813,201.966,660.629,1359.76-138.461,2079.3-100.093v-2.8Z" fill="#0ca1a5" fill-rule="evenodd"/><path d="M2132.42,2397.685C1407.648,2397.6,292.5,3170.169,86.487,2521.3-51.538,2086.509-2053,2407.747-4191.717,2644.989V2647C-2055.188,2409.841-57.23,2089.577,80.691,2523.952c206.575,650.615,1327.141-127.762,2051.729-123.508v-2.759Z" fill="#0ca1a5" fill-rule="evenodd"/><path d="M2132.41,2390.4C1404.5,2422.382,325.294,3175.792,114.377,2536.87c-143.854-435.773-2156.842-88.318-4306.094,174.567v2.015C-2044.63,2450.655-35.138,2104.2,108.579,2539.6c211.466,640.6,1295.868-118.512,2023.831-146.7v-2.5Z" fill="#0ca1a5" fill-rule="evenodd"/><path d="M2132.42,2383.524C1402.941,2446.151,358.7,3181.706,142.633,2552.8c-150.046-436.69-2174.626-61.065-4334.37,229.285v2.023c2157.57-290.24,4178.68-664.794,4328.581-228.482,216.629,630.561,1265.838-110.639,1995.576-169.85v-2.248Z" fill="#0ca1a5" fill-rule="evenodd"/><path d="M2132.41,2377.417C1402.873,2469.265,392.782,3188,171.234,2569.128c-156.614-437.51-2192.818-31.652-4362.951,288.1v2.064c2167.968-319.654,4200.7-724.375,4357.2-287.242,222.136,620.5,1236.964-103.635,1966.925-192.375v-2.258Z" fill="#0ca1a5" fill-rule="evenodd"/><path d="M2132.42,2371.909c-728.147,119.881-1704.8,822.744-1932.14,214-163.655-438.213-2211.542.1-4392,351.373v2.065c2178.3-351.1,4222.727-788.246,4386.238-350.438,227.925,610.342,1209.172-97.875,1937.9-214.949v-2.055Z" fill="#0ca1a5" fill-rule="evenodd"/><path d="M2132.41,2366.661c-725.3,146.863-1669.225,834.985-1902.658,236.529-171.133-438.783-2230.817,34.457-4421.469,419.461v2.082C-2003.217,2639.915,53.014,2167.9,224.021,2606.3c234.032,600.017,1182.336-93.381,1908.389-237.766v-1.871Z" fill="#0ca1a5" fill-rule="evenodd"/><path d="M2132.41,2362.136c-721.125,172.832-1632.859,846.928-1872.695,258.892-179.121-439.207-2250.7,71.637-4451.432,492.786v2.111C-1993.14,2694.97,75.027,2185.4,254,2624.22c240.485,589.592,1156.395-89.59,1878.407-260.211v-1.873Z" fill="#0ca1a5" fill-rule="evenodd"/><path d="M2132.42,2358.048c-715.576,197.922-1595.6,858.8-1842.162,281.433C102.6,2200.013-1981.082,2751.4-4191.717,3211.312v2.123C-1983.194,2753.776,97.06,2203.671,284.556,2642.8c247.208,578.9,1131.282-87.063,1847.864-283.065v-1.687Z" fill="#0ca1a5" fill-rule="evenodd"/><path d="M2132.42,2354.179c-708.631,222.269-1557.459,870.9-1811.043,304.453-196.784-439.547-2292.734,155.678-4513.094,657.144v2.123c2218.252-501.187,4310.829-1095.023,4507.432-655.824,254.23,567.951,1106.933-85.588,1816.7-306.17v-1.726Z" fill="#0ca1a5" fill-rule="evenodd"/><path d="M2132.41,2351.189c-700.355,245.867-1518.293,882.628-1779.228,327.39-206.528-439.457-2315.032,203.258-4544.9,749.352v2.16C-1963.95,2884.306,141.194,2243.021,347.559,2682.14c261.619,556.685,1083.242-84.959,1784.851-329.369v-1.582Z" fill="#0ca1a5" fill-rule="evenodd"/><path d="M2132.42,2348.524c-690.729,268.77-1478.1,894.506-1746.662,350.883-217-439.138-2338.358,255.2-4577.475,849.233v2.181c2237.039-593.7,4355.089-1286.531,4571.881-847.748C649.48,3248.153,1440.381,2617.534,2132.42,2350v-1.477Z" fill="#0ca1a5" fill-rule="evenodd"/><path d="M2132.42,2346.491C1452.738,2637.552,695.758,3252.812,419.167,2721.22c-228.194-438.58-2362.8,312.031-4610.884,957.689v2.211c2246.044-645.3,4377.354-1394.324,4605.365-956.1,277.334,533.043,1037.682-86.975,1718.772-377.061v-1.467Z" fill="#0ca1a5" fill-rule="evenodd"/><path d="M2132.42,2345.179C1465.23,2658,738.443,3263.2,453.576,2744.157,213.323,2306.4-1935,3118.626-4191.717,3819.925v2.248C-1937.016,3121.251,208.047,2310.7,448.117,2748.114c285.639,520.461,1015.608-89.513,1684.3-401.576v-1.359Z" fill="#0ca1a5" fill-rule="evenodd"/><path d="M2132.42,2344.493c-653.2,333.961-1349.842,929.793-1643.346,423.879C235.828,2331.751-1926.8,3211.649-4191.717,3973.05V3974h3.941C-1926.235,3213.337,230.775,2336.439,483.692,2772.452c294.285,507.322,993.974-93.187,1648.728-426.619v-1.34Z" fill="#0ca1a5" fill-rule="evenodd"/><path d="M2132.42,2344.919C1494.74,2699.562,828.3,3286.124,525.879,2793.983,276.3,2387.778-1638.191,3192.8-3740.587,3974h6.1C-1636.6,3194.149,271.444,2392.757,520.553,2798.229c303.255,493.518,972.566-97.683,1611.867-451.98v-1.33Z" fill="#0ca1a5" fill-rule="evenodd"/><path d="M2132.41,2346.364c-620.478,374.748-1256.654,952.444-1568.244,474.844C317.8,2443.585-1380.619,3183.712-3322.429,3974h5.6C-1379.549,3185.382,313.041,2448.718,558.947,2825.616c312.448,478.951,951.334-103.385,1573.463-478.035v-1.217Z" fill="#0ca1a5" fill-rule="evenodd"/><path d="M2132.41,2349.153c-601.543,394.282-1207.194,963.276-1528.221,501.119C360.727,2499.806-1147.573,3182.815-2932.483,3974h5.2C-1146.9,3184.755,356.086,2505.054,599.058,2854.874c321.941,463.459,930.13-110.08,1533.352-504.488v-1.233Z" fill="#0ca1a5" fill-rule="evenodd"/><path d="M2132.41,2353.687C1551.744,2766.9,976.912,3327.112,646.26,2881.46,405.574,2557.05-933.328,3188.71-2565.4,3974h4.913C-932.914,3190.919,401.06,2562.481,641.252,2886.226c331.6,446.933,908.793-117.787,1491.158-531.344v-1.2Z" fill="#0ca1a5" fill-rule="evenodd"/><path d="M2132.41,2360.226c-557.707,431.453-1101.225,982.755-1441.65,554.8C452.861,2615.983-733.592,3200.517-2217.07,3974h4.664C-733.391,3203,448.529,2621.567,685.889,2919.979,1027.308,3349.2,1573.014,2793.4,2132.41,2361.386v-1.16Z" fill="#0ca1a5" fill-rule="evenodd"/><path d="M2132.42,2369.6c-532.434,448.786-1044.029,990.6-1394.266,581.749C503.275,2677.151-545,3217.833-1884.142,3974h4.413C-544.93,3220.5,499.107,2682.94,733.467,2956.513c351.238,410.074,864.82-136.155,1398.953-585.713v-1.2Z" fill="#0ca1a5" fill-rule="evenodd"/><path d="M2132.41,2382.491c-504.535,464.994-983.457,996.434-1343.321,608.363C557.587,2741.226-364.738,3240.425-1563.695,3974h4.23C-364.768,3243.358,553.622,2747.2,784.557,2996.218c360.941,389.236,841.66-146.553,1347.853-612.52v-1.207Z" fill="#0ca1a5" fill-rule="evenodd"/><path d="M2132.42,2400.116c-473.693,479.588-918.951,999.2-1288.113,633.928C616.692,2808.8-190.056,3268.1-1253.383,3974h4.119C-190.123,3271.267,612.988,2814.985,840.015,3039.64c370.262,366.392,817.118-157.514,1292.4-638.307v-1.217Z" fill="#0ca1a5" fill-rule="evenodd"/><path d="M2132.42,2424.271C1693,2916.218,1282.522,3421.63,904.889,3081.515c-223.023-200.846-923.415,219.6-1855.427,892.478h3.974C-18.547,3304.47,678.451,2887.036,900.828,3087.323c378.8,341.147,790.649-168.394,1231.592-661.787v-1.265Z" fill="#ebfbff" fill-rule="evenodd"/><path d="M2132.42,2457.669c-401.19,500.9-775.551,988.32-1160.254,676.305-217.4-176.325-819.7,205.8-1624.8,840.029h3.907c801.241-630.6,1400.41-1009.734,1617.124-833.981,385.909,312.989,761.419-178.474,1164.026-681.011v-1.342Z" fill="#edfcff" fill-rule="evenodd"/><path d="M2132.42,2504.677c-358.311,504.363-695.176,967.947-1084.383,687.65C837.488,3040.689,326.047,3384.114-357.311,3974h3.877c679.653-585.934,1188.239-926.482,1398.026-775.4,390.443,281.184,728.244-186.277,1087.828-692.521v-1.408Z" fill="#effcff" fill-rule="evenodd"/><path d="M2132.42,2572.659c-310.076,498.707-608.18,928.973-997.33,684.938C933.164,3130.993,505.572,3435.667-60.636,3974h3.813c562.78-534.314,987.767-835.969,1188.874-709.865,390.424,244.834,689.193-189.037,1000.369-689.84v-1.639Z" fill="#f0fcff" fill-rule="evenodd"/><path d="M2132.42,2675.173c-256.121,476.629-514.647,857.887-895.4,655.883C1045.926,3229.7,695.893,3494.28,240.75,3974h3.877c451.97-475.41,799.619-737.061,989.795-636.184,382.06,202.68,641.037-181.84,898-660.715v-1.931Z" fill="#f2fdff" fill-rule="evenodd"/><path d="M2132.41,2837.2c-197.586,423.108-417,729.614-773.1,576.953-177.328-76.006-455.945,146.709-807.106,559.84H556.2c348.287-408.539,624.8-628.418,801.086-552.836,357.307,153.182,577-155.939,775.127-581.293V2837.2Z" fill="#f4fdff" fill-rule="evenodd"/><path d="M2132.41,3097.991c-141.306,311.012-322.732,505.953-622,410.508-159.451-50.877-372.914,128.014-628.62,465.5h4.243c253.2-332.678,464.743-508.807,623.026-458.307,300.226,95.754,481.836-100.75,623.355-413.5v-4.205Z" fill="#f5fdff" fill-rule="evenodd"/><path d="M2132.42,3445.284c-99.613,138-234.357,208.322-428.393,170.141-135.875-26.762-290.445,106.49-461.619,358.578H1247c169.156-247.149,322.008-377.719,456.512-351.246,194.355,38.24,329.256-32.338,428.906-170.817v-6.656Z" fill="#f7feff" fill-rule="evenodd"/><path d="M2132.42,3715.21c-49.315,15.734-104.813,23.057-168.328,19.623-104.174-5.6-206.168,80.414-307.537,239.17h5.172c99.812-154.1,200.275-237.32,302.878-231.793,63.282,3.416,118.625-3.828,167.815-19.457v-7.543Z" fill="#f9feff" fill-rule="evenodd"/></g></g></svg>