<svg xmlns="http://www.w3.org/2000/svg" xmlns:xlink="http://www.w3.org/1999/xlink" width="1057" height="556.001" viewBox="0 0 1057 556.001"><defs><style>.a{fill:none;}.b{fill:#224a56;}.b,.d{opacity:0.1;}.c{clip-path:url(#a);}.e{fill:#3c9a8e;fill-rule:evenodd;}</style><clipPath id="a"><rect class="a" width="1057" height="556" rx="10" transform="translate(113.25 172.636)"/></clipPath></defs><g transform="translate(-113.25 -172.636)"><rect class="b" width="1057" height="556" rx="10" transform="translate(113.25 172.637)"/><g class="c"><g class="d"><path class="e" d="M-1451.654,98.53c170.3,36.822,454.415,239.658,249.673-55.359-252.286-363.548,529.86-7.57,702.893-61.053C-396.537-49.581-396.335-182.4-161.317-55.7,450.6,274.173,422.222,175.164,509.3,68.24,681.631-143.4,1174.309,598.224,1304.4,346.465c3.21-6.21,6.462-11.959,9.7-17.846l-1.614,7.943c-2.144,3.982-4.3,7.721-6.433,11.845C1175.949,600.162,683.265-141.466,510.937,70.178c-87.072,106.932-58.7,205.934-670.619-123.941-235.009-126.7-235.213,6.131-337.773,37.827C-670.472,37.537-1452.63-318.43-1200.342,45.109c205.54,296.157-81.554,90.628-251.629,54.978l.317-1.557Z"/><path class="e" d="M-1454.431,112.178c170.666,38.839,448.1,234.369,244.588-57.066-253.038-362.362,529.19-9.1,701.856-63.014C-405.655-39.855-405.839-172.526-170.736-46.66c612.118,327.7,583.488,228.891,670.15,121.834,171.5-211.882,665.736,527.412,794.941,275.594,7.921-15.436,15.931-29.542,23.992-43.007l-1.447,7.1c-7.005,11.957-13.989,24.37-20.89,37.833C1166.792,604.519,672.558-134.776,501.057,77.117,414.4,184.169,443.026,282.972-169.1-44.734-404.191-170.6-404.01-37.921-506.346-5.973-679,47.938-1461.235-305.315-1208.2,57.05c204.274,292.531-76.035,94.4-246.529,56.607l.3-1.479Z"/><path class="e" d="M-1457.163,125.552c170.95,40.936,441.151,228.783,239.063-58.868C-1471.884-294.564-689.513,56.1-517.189,1.749-415.06-30.464-415.623-162.98-180.426-37.923c612.374,325.608,583.5,226.991,669.756,119.81,170.708-212.141,666.5,524.939,794.849,273.017a701.027,701.027,0,0,1,37.933-65.666l-1.294,6.365c-11.813,18.421-23.487,38.656-34.991,61.232C1157.476,608.747,661.689-128.326,490.971,83.808,404.726,190.99,433.6,289.605-178.785-36-413.976-161.062-413.41-28.537-515.543,3.675c-172.318,54.34-954.686-296.315-700.9,64.934,202.856,288.749-70.183,98.378-241.016,58.418l.3-1.475Z"/><path class="e" d="M-1459.829,138.7c171.1,43.047,433.574,222.875,233.088-60.841-254.524-360.185,528.035-12.032,700.03-66.8C-424.768-21.4-425.694-153.784-190.384-29.506,422.29,294.09,393.183,195.657,479.05,88.342c169.956-212.4,667.292,522.577,794.824,270.565,16.845-33.3,34.064-61.713,51.586-86.119l-1.164,5.726c-16.554,23.527-32.825,50.794-48.775,82.312C1147.992,612.84,650.651-122.138,480.694,90.259c-85.866,107.31-56.762,205.753-669.421-117.836-235.315-124.285-234.389,8.095-336.326,40.562-172,54.76-954.57-293.387-700.031,66.806,201.241,284.775-63.992,102.494-235.031,60.321l.286-1.409Z"/><path class="e" d="M-1462.455,151.608c171.112,45.129,425.4,216.661,226.678-62.946-255.272-359.21,527.547-13.448,699.248-68.634C-434.764-12.67-436.043-144.943-200.6-21.4,412.4,300.273,383.054,202,468.559,94.547c169.247-212.665,668.126,520.335,794.865,268.2,21.107-41.989,42.814-76.495,65.005-104.541l-1.111,5.449c-21.225,27.408-42.008,60.762-62.23,101.005C1138.337,616.795,639.464-116.21,470.22,96.464,384.707,203.92,414.064,302.194-198.953-19.494c-235.43-123.531-234.159,8.74-335.923,41.439-171.705,55.173-954.529-290.574-699.239,68.621,199.475,280.673-57.509,106.79-228.629,62.467l.289-1.425Z"/><path class="e" d="M-1465.033,164.288c170.942,47.137,416.6,210.11,219.827-65.261-256.02-358.272,527.113-14.811,698.542-70.387,101.609-32.954,99.992-165.115,335.572-42.277C402.3,306.21,372.722,208.08,457.886,100.492c168.569-212.945,668.968,518.215,794.966,265.937,25.218-50.5,51.338-90.242,78.15-120.877l-1.055,5.184c-25.864,30.2-51.064,68.811-75.431,117.6-126,252.29-626.4-478.887-794.974-265.943-85.167,107.6-55.575,205.725-668.965-114.11C-445.018-134.566-443.4-2.4-545,30.55c-171.436,55.582-954.576-287.88-698.556,70.388,197.522,276.4-50.746,111.149-221.757,64.705l.277-1.355Z"/><path class="e" d="M-1467.555,176.681c170.544,49.054,407.174,203.246,212.511-67.716C-1511.8-248.44-728.294,92.854-557.1,36.877-455.636,3.693-457.584-128.389-221.844-6.209c613.809,318.1,584,220.119,668.845,112.376,167.926-213.247,669.852,516.226,795.143,263.781,29.211-58.865,59.67-103.027,91.079-135.283l-.952,4.672c-30.481,32.019-60.062,75.291-88.459,132.51-125.29,252.446-627.217-477.016-795.144-263.779C363.815,215.817,393.631,313.808-220.18-4.31-455.92-126.489-453.97,5.6-555.436,38.778c-171.189,55.976-954.7-285.3-697.942,72.1,195.4,272-43.776,115.605-214.455,67.165l.278-1.358Z"/><path class="e" d="M-1470.035,188.865c169.894,50.812,397.149,196.036,204.767-70.389-257.5-356.615,526.449-17.377,697.415-73.751,101.328-33.4,99.067-165.418,334.986-43.868,614.276,316.465,584.253,218.592,668.79,110.707C603.249-101.982,1106.691,625.91,1231.309,373.3c33.107-67.115,67.87-115.194,103.861-148.209l-.86,4.226c-35.085,32.938-69,80.325-101.342,145.882C1108.36,627.807,604.918-100.081,437.587,113.464,353.041,221.347,383.082,319.23-231.194,2.755-467.123-118.792-464.856,13.22-566.181,46.627c-170.969,56.354-954.923-282.862-697.428,73.732,193.118,267.464-36.6,120.1-206.694,69.825l.268-1.319Z"/><path class="e" d="M-1472.453,200.751c168.947,52.391,386.463,188.5,196.552-73.24-258.224-355.88,526.216-18.593,696.992-75.323C-477.7,18.557-480.269-113.406-244.156,7.549,370.629,322.486,340.368,224.715,424.636,116.671c166.777-213.84,671.713,512.612,795.7,259.8C1257.246,301.186,1296.3,249.7,1336.877,216.7l-.777,3.819c-39.7,33.069-77.914,84.081-114.1,157.838-123.983,252.813-628.916-473.649-795.7-259.8C342.047,226.615,372.292,324.387-242.484,9.451-478.6-111.5-476.027,20.445-577.246,54.072c-170.774,56.743-955.212-280.548-696.99,75.331,190.638,262.744-29.27,124.576-198.479,72.634l.262-1.286Z"/><path class="e" d="M-1474.821,212.389c167.684,53.748,375.172,180.611,187.883-76.312-258.948-355.221,526.04-19.744,696.647-76.85,101.119-33.845,98.258-165.764,334.586-45.354,615.31,313.5,584.849,215.827,668.867,107.611C579.42-92.672,1085.827,632.493,1209.223,379.466c40.66-83.366,83.962-137.829,129.134-170.064l-.735,3.617c-44.3,32.456-86.788,86.454-126.718,168.341C1087.507,634.383,581.1-90.788,414.835,123.378,330.819,231.585,361.284,329.261-254.038,15.753-490.359-104.639-487.5,27.275-588.612,61.12c-170.607,57.1-955.6-278.383-696.658,76.845,188.015,257.921-21.8,129.074-189.813,75.714l.262-1.29Z"/><path class="e" d="M-1477.133,223.752c166.056,54.835,363.239,172.348,178.756-79.612C-1558.034-210.495-772.445,123.3-601.969,65.85-500.945,31.791-504.08-100.1-267.532,19.794,348.364,331.968,317.7,234.374,401.473,126c165.794-214.488,673.655,509.524,796.5,256.274,44.3-91.317,91.856-147.978,141.595-178.821l-.707,3.468c-48.871,31.174-95.606,87.384-139.2,177.24C1076.809,637.405,568.947-86.6,403.144,127.889c-83.765,108.37-53.1,205.969-669-106.2C-502.4-98.217-499.269,33.676-600.3,67.733c-170.465,57.456-956.056-276.343-696.4,78.293,185.2,252.936-14.229,133.531-180.686,78.978l.255-1.252Z"/><path class="e" d="M-1479.381,234.8c164.039,55.656,350.637,163.734,169.157-83.106-260.353-354.119,525.9-21.879,696.251-79.671,100.964-34.245,97.566-166.131,334.351-46.71C336.884,336.266,306.035,238.735,389.585,130.2,554.96-84.616,1064.255,638.388,1186.6,384.9c47.876-99.181,99.652-157.48,153.962-186.345l-.637,3.142c-53.461,29.285-104.449,87.323-151.639,185.081-122.349,253.487-631.649-469.52-797.016-254.71-83.555,108.541-52.7,206.08-669.216-104.88C-514.727-92.229-511.328,39.657-612.292,73.909c-170.352,57.785-956.6-274.447-696.251,79.669,182.2,247.813-6.58,137.893-171.087,82.446l.249-1.223Z"/><path class="e" d="M-1481.566,245.536c161.6,56.143,337.4,154.765,159.1-86.819-261.052-353.676,525.916-22.85,696.181-80.964,100.914-34.45,97.267-166.341,334.3-47.343,617.17,309.859,586.129,212.363,669.49,103.659,165-215.136,675.687,507,797.581,253.259,51.4-106.989,107.423-166.564,166.317-192.889l-.581,2.851c-58.065,26.832-113.315,86.305-164.047,191.911C1054.881,642.958,544.183-79.189,379.182,135.949,295.843,244.654,326.865,342.137-290.292,32.295-527.333-86.714-523.69,45.195-624.6,79.633c-170.261,58.1-957.226-272.72-696.185,80.966,179.02,242.542,1.1,142.17-161.025,86.149l.247-1.212Z"/><path class="e" d="M-1483.686,255.959c158.7,56.287,323.489,145.388,148.559-90.757-261.71-353.329,526.011-23.78,696.221-82.2C-538.034,48.381-541.9-83.542-304.6,35.076,313.252,343.942,282.028,246.485,365.227,137.61c164.662-215.486,676.731,505.961,798.215,251.937C1218.324,274.809,1278.6,214.309,1342.1,191.038l-.55,2.693c-62.688,23.868-122.177,84.3-176.419,197.7C1043.642,645.452,531.58-76,366.914,139.481,283.728,248.356,314.938,345.821-302.91,36.956c-237.3-118.617-233.429,13.305-334.311,47.927-170.2,58.415-957.927-271.13-696.214,82.19,175.629,237.11,8.8,146.338-150.5,90.088l.245-1.2Z"/><path class="e" d="M-1485.744,266.026c155.319,56.07,308.915,135.626,137.554-94.927-262.363-353.034,526.183-24.623,696.349-83.331,100.86-34.8,96.778-166.758,334.348-48.472C301.077,347.291,269.694,249.84,352.749,140.8c164.383-215.819,677.78,505.083,798.915,250.775,58.293-122.4,122.817-183.127,190.916-202.911l-.523,2.587c-67.282,20.457-131.04,81.144-188.709,202.193C1032.223,647.753,518.82-73.152,354.442,142.671c-83.051,109.05-51.676,206.5-670.242-101.506C-553.371-77.123-549.294,54.851-650.143,89.649-820.32,148.356-1608.864-180.067-1346.5,172.97c172.062,231.516,16.48,150.334-139.487,94.244l.241-1.188Z"/><path class="e" d="M-1487.71,275.734c151.375,55.422,293.615,125.443,126.055-99.327-263.013-352.83,526.385-25.387,696.57-84.378C-564.23,57.073-568.5-74.958-330.643,43.051,288.678,350.3,257.137,252.846,340.081,143.631,504.225-72.534,1018.922,647.979,1139.743,393.38c61.685-129.99,130.472-190.515,203.177-206.393l-.479,2.347c-71.9,16.619-139.938,77.232-201,205.914C1020.619,649.858,505.924-70.662,341.77,145.5c-82.931,109.226-51.4,206.682-670.715-100.569C-566.809-73.088-562.53,58.945-663.391,93.909c-170.17,58.976-959.577-268.458-696.566,84.371,168.267,225.733,24.108,154.154-127.992,98.623l.239-1.169Z"/><path class="e" d="M-1489.6,285.032c146.89,54.355,277.6,114.848,114.073-103.931-263.63-352.708,526.683-26.092,696.889-85.33C-577.761,60.65-582.21-71.447-344.047,46.33,276.046,352.97,244.366,255.5,327.208,146.106,491.177-70.406,1007.12,649.878,1127.692,394.96c65.043-137.539,138.143-197.551,215.472-209.147l-.438,2.142c-76.532,12.367-148.882,72.6-213.332,208.878C1008.832,651.754,492.872-68.538,328.908,147.972,246.059,257.363,277.746,354.839-342.361,48.2-580.516-69.574-576.067,62.532-676.948,97.642c-170.2,59.245-960.511-267.374-696.876,85.333,164.25,219.737,31.662,157.738-116.014,103.216l.236-1.159Z"/><path class="e" d="M-1491.407,293.9c141.782,52.8,260.867,103.815,101.607-108.746-264.234-352.667,527.036-26.706,697.3-86.187C-591.591,63.72-596.2-68.488-357.727,49.108c620.912,306.159,589.089,208.644,671.88,99.086,163.835-216.86,680.984,503.373,801.354,248.122,68.4-145.041,145.811-204.159,227.775-211.1l-.433,2.135c-81.16,7.786-157.839,67.057-225.638,210.835C996.836,653.44,479.688-66.8,315.852,150.063c-82.779,109.573-50.97,207.071-671.873-99.081C-594.5-66.6-589.9,65.587-690.8,100.838c-170.259,59.486-961.534-266.475-697.294,86.184,159.987,213.541,39.1,161.083-103.547,108.037l.235-1.157Z"/><path class="e" d="M-1493.117,302.31c136.038,50.756,243.349,92.327,88.624-113.76-25.424-33.866-41.019-61.424-48.442-83.726l.466-2.29c6.75,23,22.634,51.857,49.679,87.889,155.471,207.063,46.381,164.115-90.562,113.037l.235-1.15Zm53.394-262.416c102.213-74.6,601.9,107.671,733.055,61.714,100.955-35.386,96.225-167.683,335.013-50.237,621.739,305.811,589.794,208.26,672.55,98.51,163.769-217.2,682.062,503.142,802.284,247.557C1174.9,244.966,1256.667,187.4,1343.241,185.4l-.4,1.946c-85.795,2.887-166.827,60.734-237.958,211.967C984.658,654.9,466.368-65.446,302.594,151.762c-82.74,109.736-50.8,207.3-672.538-98.516C-608.738-64.209-604.01,68.094-704.973,103.484c-132.246,46.34-639.216-139.375-735.528-59.771l.778-3.819Z"/><path class="e" d="M-1494.727,310.22c129.591,48.162,225.042,80.351,75.155-118.954-17.236-22.916-29.9-42.9-38.664-60.389l.245-1.2c8.77,18.207,21.854,39.176,40.124,63.46,150.641,200.3,53.476,166.788-77.093,118.23l.233-1.145Zm56.269-276.544c131-49.714,592.117,113.982,717.315,69.993,101.035-35.494,96.19-167.932,335.3-50.56,622.6,305.608,590.548,207.984,673.282,98.062C451.2-66.377,970.6,654.254,1090.718,398.325c75.041-159.877,161.2-215.631,252.413-212.385l-.359,1.767c-90.44-2.338-175.867,53.816-250.339,212.495C972.3,656.131,452.9-64.5,289.155,153.048,206.41,262.962,238.465,360.6-384.128,54.981-623.244-62.39-618.4,70.042-719.438,105.538-845.405,149.8-1311.35-16.116-1439.046,36.565l.588-2.889Z"/><path class="e" d="M-1496.23,317.56c122.385,45,205.884,67.885,61.167-124.3a486.689,486.689,0,0,1-27.634-40.5l.14-.687a479.448,479.448,0,0,0,29.2,43.066c145.49,193.2,60.335,169.043-63.113,123.58l.235-1.157Zm58.338-286.719c149.144-33.167,581.363,116.744,701.97,74.283,101.116-35.607,96.188-168.179,335.645-50.816C223.2,359.855,191.051,262.137,273.8,152.043c163.805-217.891,684.228,503.2,804.321,246.911C1156.506,231.687,1247.1,178.014,1342.96,186.8l-.358,1.763c-95.1-7.826-184.947,46.21-262.775,212.264C959.738,657.115,439.318-63.973,275.52,153.92c-82.765,110.091-50.6,207.812-674.088-97.747C-638.019-61.179-633.087,71.4-734.2,107-855.416,149.67-1291.329-1.916-1438.379,33.239l.487-2.4Z"/><path class="e" d="M-1497.59,324.293c114.356,41.2,185.821,54.88,46.637-129.776-5.8-7.711-10.938-14.978-15.746-22.044l.1-.515c5.244,7.8,10.889,15.851,17.353,24.438,139.968,185.691,66.893,170.8-48.587,129.071l.239-1.174Zm60.058-295.174c162.257-20.446,569.943,117.958,686.539,76.842,101.225-35.695,96.225-168.424,336.029-51.037,624.376,305.648,592.139,207.819,674.955,97.552C423.9-65.756,945.262,655.985,1065.4,399.329c81.707-174.561,176.757-225.462,277.244-210.945l-.33,1.611c-99.741-13.533-194.042,37.834-275.2,211.208C946.983,657.867,425.6-63.873,261.7,154.352,178.9,264.625,211.125,362.444-413.253,56.807c-239.8-117.394-234.8,15.334-336.027,51.027-117.1,41.29-527.839-98.493-688.683-76.6l.431-2.119Z"/><path class="e" d="M-1498.823,330.307c105.389,36.69,164.754,41.287,31.591-135.294-1.132-1.5-2.088-2.878-3.178-4.349l.078-.382c1.628,2.222,3.111,4.339,4.809,6.6,134,177.695,73.086,171.942-33.544,134.619l.244-1.2Zm61.536-302.433C-1265.2,17.661-879.32,146.01-766.364,106.151-665.005,70.382-670.055-62.519-429.9,54.96,195.393,360.847,163.09,262.9,245.98,152.47c164.071-218.571,686.335,504,806.552,246.983,85.066-181.854,184.6-229.738,289.735-209.24l-.3,1.467c-104.381-19.5-203.193,28.956-287.712,209.644C934.022,658.356,411.769-64.224,247.7,154.347c-82.883,110.431-50.586,208.379-675.88-97.514C-668.335-60.645-663.3,72.267-764.639,108.025-878.071,148.05-1266.652,18.5-1437.7,29.9l.412-2.024Z"/><path class="e" d="M-1499.875,335.52c92.772,30.537,139.781,27.135,25.922-127.4l.072-.351c116.738,157.8,68.225,160.321-26.243,128.97l.249-1.222Zm62.83-308.788c179.547-1.712,545.464,117.608,655.024,78.94,101.5-35.82,96.442-168.922,336.944-51.282C181.151,360.688,148.8,262.6,231.793,152.007c164.3-218.9,687.371,504.7,807.754,247.286C1128,210.155,1232.089,165.556,1341.853,192.261l-.3,1.438c-109.015-25.664-212.382,19.492-300.287,207.468C920.883,658.58,397.82-65.02,233.517,153.886c-83,110.594-50.654,208.678-676.872-97.622C-683.854-61.371-678.8,71.729-780.3,107.559c-109.989,38.817-478.373-81.6-657.136-78.917l.389-1.91Z"/><path class="e" d="M-1500.733,339.738c78.11,23.431,113.692,13.746,23.212-114.084l.084-.411c93.28,131.08,56.392,140.113-23.559,115.793l.263-1.3Zm63.928-314.186c185.032,5.346,532.49,116.471,638.825,78.954,101.671-35.868,96.63-169.188,337.5-51.319,627.157,306.872,594.774,208.629,677.925,97.866C382.02-68.17,905.814,656.645,1026.42,398.847c91.858-196.35,200.535-237.017,314.9-203.97l-.271,1.334c-113.633-32-221.581,9.308-312.9,204.513C907.529,658.531,383.747-66.283,219.167,152.94c-83.155,110.758-50.775,209-677.925-97.875-240.87-117.856-235.827,15.459-337.49,51.328-106.744,37.651-456.433-74.455-640.925-79.033l.368-1.808Z"/><path class="e" d="M-1501.338,342.712c62.132,15.719,87.268,1.454,20.153-99.046l.105-.515c69.8,103.7,43.51,117.535-20.533,100.913l.275-1.352ZM-1436.51,24.1c188.975,11.353,519.047,114.9,622.3,78.513C-712.359,66.721-717.371-66.81-476.128,51.334c628.111,307.617,595.7,209.2,679.045,98.282,164.927-219.53,689.337,506.691,810.25,248.495,95.312-203.545,208.617-240.019,327.582-200.44l-.246,1.21c-118.239-38.525-230.825-1.308-325.61,201.119C893.981,658.185,369.563-68.028,204.634,151.5,121.3,262.421,153.7,360.839-474.4,53.222-715.635-64.928-710.635,68.624-812.48,104.5c-103.643,36.516-435.765-67.921-624.389-78.637l.359-1.763Z"/><path class="e" d="M-1501.583,343.914c44.526,7.516,60.141-9.214,16.514-81.162l.142-.7c46.26,75.221,29.591,91.775-16.96,83.354l.3-1.5Zm65.443-321.637c191.583,16.462,505.167,112.967,605.42,77.708C-728.653,64.091-733.6-69.695-491.991,48.8c629.054,308.536,596.652,209.923,680.2,98.853C353.57-72.179,878.5,655.671,999.79,397.077c98.827-210.739,216.812-242.737,340.36-196.461l-.247,1.216c-122.836-45.2-240.089-12.48-338.4,197.141C880.23,657.56,355.3-70.283,189.934,149.548,106.385,260.612,138.8,359.234-490.274,50.7-731.867-67.8-726.927,65.978-828.986,101.874c-100.626,35.4-416.111-61.94-607.5-77.87l.35-1.727Z"/><path class="e" d="M-1501.2,342.012c24.941-.558,32.588-16.1,11.8-58l.219-1.078c23.278,45.375,14.822,61.3-12.415,61.017l.393-1.935ZM-1435.676,20c193.028,20.8,490.844,110.721,588.186,76.581,102.263-35.891,97.432-169.929,339.407-51.007,630.021,309.642,597.625,210.81,681.424,99.6C339.2-74.942,864.549,654.71,986.269,395.731c102.4-217.869,225.088-244.776,353.183-191.695l-.222,1.1c-127.386-52-249.353-24.279-351.23,192.485C866.274,656.612,340.93-73.047,175.08,147.071c-83.809,111.213-51.416,210.044-681.43-99.6C-748.321-71.446-743.485,62.591-845.765,98.481c-97.694,34.261-397.3-56.426-590.255-76.793l.344-1.684Z"/><path class="e" d="M-1498.4,328.277c1.846-3.215,2.793-7.257,2.525-12.409l.9-4.437c2.054,10.7.274,17.882-4.544,22.338l1.117-5.492Zm63.291-311.055C-1241.7,41.681-959.006,125.4-864.541,92.375-762,56.528-766.722-77.793-524.38,41.627,106.584,352.559,74.23,253.486,158.33,142.14c166.419-220.384,692.061,511.308,814.3,251.926,106.042-225.005,233.484-246.563,366.115-186.525l-.207,1.009c-131.931-58.957-258.648-36.5-364.175,187.416C852.123,655.359,326.473-76.345,160.05,144.037,75.964,255.393,108.318,354.465-522.655,43.523-764.985-75.888-760.28,58.428-862.811,94.267c-94.809,33.158-379.176-51.29-572.633-75.4l.334-1.64Z"/><path class="e" d="M-1434.428,13.869c192.84,27.508,460.938,105.379,552.589,73.463,102.792-35.785,98.254-170.4,340.951-50.412C91.03,349.343,58.738,250.022,143.145,138.536,310.221-82.1,836.031,651.843,958.876,392.068c109.761-232.119,241.989-247.958,379.115-180.843l-.2.995c-136.436-66-267.945-49.271-377.19,181.75C837.758,653.757,311.943-80.193,144.881,140.45,60.473,251.932,92.764,351.257-539.152,38.827-781.85-81.164-777.314,53.456-880.1,89.245c-91.969,32.025-361.673-46.517-554.651-73.769l.327-1.607Z"/><path class="e" d="M-1433.616,9.877c191.388,30.03,445.38,102.329,534.242,71.554,103.075-35.7,98.73-170.637,341.792-49.992C75.259,345.555,43.054,245.955,127.821,134.353c167.8-220.874,693.643,515.539,817.158,255.37,113.569-239.193,250.628-248.782,392.2-174.519l-.189.919c-140.881-73.169-277.225-62.6-390.28,175.515C823.2,651.807,297.351-84.609,129.558,136.267c-84.781,111.6-52.577,211.2-685.411-102.911C-798.914-87.291-794.569,47.642-897.648,83.342c-89.175,30.9-344.681-42.056-536.293-71.871l.325-1.594Z"/><path class="e" d="M-1432.663,5.193c189.1,32.05,429.42,99.081,515.495,69.442,103.389-35.6,99.294-170.856,342.7-49.485,633.754,316,601.659,216.123,686.836,104.406C280.956-91.522,806.7,647.591,930.982,387.036c117.485-246.28,259.394-249.316,405.377-167.788l-.167.825c-145.318-80.437-286.507-76.323-403.476,168.886C808.432,649.515,282.693-89.612,114.1,131.483,28.919,243.2,61.02,343.079-572.738,27.068c-243.4-121.368-239.3,13.878-342.689,49.491-86.4,29.743-328.131-37.878-517.557-69.792l.321-1.574Z"/><path class="e" d="M-1431.561-.221C-1245.494,33.391-1018.479,95.388-935.17,66.9c103.718-35.477,99.894-171.064,343.637-48.878C43.121,336.146,11.151,235.941,96.78,124.141,266.252-97.136,791.727,644.905,916.866,383.966c121.5-253.318,268.29-249.355,418.626-160.476l-.171.83C1185.653,136.541,1039.578,133.653,918.6,385.9c-125.149,260.937-650.621-481.1-820.1-259.826C12.881,237.872,44.851,338.077-589.8,19.95-833.546-102.232-829.716,33.368-933.44,68.827c-83.61,28.6-311.993-33.965-498.439-67.49l.318-1.558Z"/><path class="e" d="M-1430.3-6.44c182.3,34.758,396.376,91.976,476.91,64.645C-849.323,22.893-852.833-113.06-608.756,10.021,26.767,330.485-5.048,229.947,81.067,118.061,251.5-103.377,776.546,641.832,902.636,380.53c125.631-260.345,277.33-248.91,431.955-152.621l-.153.757c-153.974-95.211-304.95-105.484-430.065,153.805C778.275,643.772,253.238-101.432,82.79,120-3.316,231.886,28.5,332.425-607.024,11.966-851.1-111.12-847.59,24.832-951.657,60.143c-80.833,27.435-296.217-30.317-478.953-65.036l.315-1.547Z"/><path class="e" d="M-1428.862-13.485c177.843,35.507,379.3,88.14,457.06,61.978C-867.369,13.368-870.526-122.95-626.127,1.111,10.22,324.153-21.413,223.258,65.248,111.312,236.736-110.259,761.155,638.366,888.289,376.7c129.913-267.368,286.537-248.131,445.4-144.352l-.149.725c-158.218-102.712-314.12-120.73-443.515,145.58C762.887,640.307,238.462-108.307,66.971,113.259-19.667,225.21,11.952,326.106-624.393,3.07-868.791-121-865.643,15.32-970.072,50.445c-78.052,26.254-280.76-26.875-459.1-62.385l.315-1.545Z"/><path class="e" d="M-1427.258-21.419c172.754,35.88,361.894,84.126,436.839,59.166,104.844-34.9,102.084-171.622,346.786-46.47C-6.5,317.122-37.9,215.857,49.316,103.862,221.942-117.8,745.571,634.449,873.848,372.45,1008.162,98.1,1169.72,125.716,1332.735,237.038l-.14.692c-162.383-110.253-323.212-136.607-457.022,136.684C747.306,636.407,223.681-115.846,51.05,105.818-36.183,217.816-4.767,319.077-641.9-6.761-886.6-131.908-883.851,4.8-988.686,39.713c-75.248,25.051-265.581-23.681-438.886-59.59l.314-1.542Z"/><path class="e" d="M-1425.455-30.279C-1258.426,5.61-1081.32,49.66-1009.182,25.907-903.94-8.746-906.241-145.858-661.253-19.537-23.388,309.367-54.543,207.709,33.305,95.679,207.17-126.043,729.791,630.118,859.295,367.8c138.9-281.324,305.374-244.941,472.478-126.014l-.127.626C1165.169,124.546,999.407,89.485,861.021,369.762,731.506,632.089,208.9-124.07,35.023,97.649-52.815,209.678-21.648,311.336-659.527-17.56-904.514-143.885-902.209-6.773-1007.463,27.878c-72.417,23.847-250.678-20.66-418.307-56.611l.315-1.546Z"/><path class="e" d="M-1423.444-40.112c160.71,35.561,326.066,75.582,395.337,53.055,105.681-34.382,103.871-171.9,349.129-44.3C-40.427,300.856-71.308,198.78,17.207,86.749,192.4-135,713.789,625.323,844.654,362.7,988.3,74.425,1159.7,120.033,1330.793,246.6l-.126.631C1160.185,121.718,989.5,77.456,846.373,364.671,715.515,627.313,194.133-133.013,18.939,88.731-69.58,200.767-38.694,302.841-677.248-29.381-922.5-156.976-920.69-19.455-1026.392,14.926c-69.549,22.63-236.011-17.838-397.366-53.5l.314-1.537Z"/><path class="e" d="M-1421.245-50.97c153.862,34.894,307.7,71.063,374.076,49.767,106.151-34.062,104.887-172.006,350.381-43.038C-57.623,291.559-88.181,189.041,1.046,77.016,177.673-144.7,697.594,620.051,829.92,357.146c148.56-295.19,324.869-239.787,499.852-105.55l-.12.586C1155.28,118.969,979.693,64.991,831.64,359.148,699.324,622.045,179.406-142.693,2.779,79.024-86.451,191.04-55.9,293.551-695.065-42.244-940.551-171.219-939.285-33.261-1045.443.8c-66.651,21.383-221.583-15.186-376.115-50.228l.313-1.538Z"/></g></g></g></svg>