<svg xmlns="http://www.w3.org/2000/svg" xmlns:xlink="http://www.w3.org/1999/xlink" width="1920" height="1080" viewBox="0 0 1920 1080"><defs><clipPath id="a"><rect width="1920" height="1080" fill="#0e656f" opacity="0.1"/></clipPath></defs><g clip-path="url(#a)"><rect width="1920" height="1080" fill="#0e656f" opacity="0.1"/><g opacity="0.1"><path d="M-2465.394,207.341c270.793,91.058,696.757,473.387,416.934-44.674-344.8-638.4,864.778,84.291,1156.485,28.7,172.885-32.95,197.436-249.339,557.287-.025,936.954,649.115,908.767,482.6,1070.153,324.254,319.41-313.441,986.975,984.873,1244.872,598.363,6.364-9.534,12.711-18.309,19.062-27.312l-4.081,12.648c-4.22,6.1-8.421,11.8-12.642,18.129-257.918,386.5-925.491-911.815-1244.893-598.371C576.4,677.416,604.583,843.911-332.375,194.793c-359.839-249.309-384.394-32.9-557.293.04-291.681,55.58-1501.276-667.1-1156.475-28.709,280.915,520.065-149.418,132.8-420.05,43.7l.8-2.479Z" fill="#0ca1a5" fill-rule="evenodd"/><path d="M-2472.407,229.073c271.014,94.411,687.422,463.618,408.959-48.383C-2409.687-455.917-1199.485,262.372-908.295,206c172.575-33.4,196.47-249.623,556.611-1.651C585.992,849.957,557.359,683.731,718.1,525.089c318.092-313.983,988.624,980.816,1245.084,594.045,15.719-23.707,31.345-45.234,46.934-65.705l-3.651,11.308c-13.594,18.206-27.24,37.16-40.94,57.839-256.482,386.777-927.006-908.021-1245.106-594.021-160.726,158.636-132.1,324.854-1069.78-320.766-360.129-247.962-384.03-31.739-556.611,1.657-291.172,56.36-1501.385-661.912-1155.156-25.3,279.514,513.925-141.112,139.947-412.037,47.281l.76-2.356Z" fill="#0ca1a5" fill-rule="evenodd"/><path d="M-2479.3,250.369c271.093,97.879,677.124,453.247,400.283-52.328-347.657-634.929,863.254,79.141,1153.964,22.011,172.292-33.865,195.541-249.9,555.984-3.231C569.405,859.068,540.34,693.108,700.439,534.19c316.854-314.549,990.325,976.923,1245.4,589.828a1148.832,1148.832,0,0,1,73.789-100.083l-3.271,10.134c-22.609,27.863-45.32,58.707-68.184,93.4C1693.09,1514.544,1019.632,223.084,702.764,537.618,542.681,696.542,571.747,862.5-366.742,220.253c-360.434-246.677-383.679-30.625-555.977,3.238-290.7,57.119-1501.606-656.941-1153.949-22.011,277.891,507.5-132.3,147.5-403.386,51.238l.757-2.349Z" fill="#0ca1a5" fill-rule="evenodd"/><path d="M-2486.04,271.312c270.95,101.345,665.855,442.238,390.908-56.633-349.058-633.331,862.618,76.689,1152.868,18.81C-770.23,199.185-747.6-16.7-386.828,228.721,552.5,867.745,523.022,702.04,682.512,542.833c315.674-315.109,992.039,973.219,1245.808,585.829,33.521-51.183,66.761-94.347,99.764-130.924l-2.941,9.12c-31.266,35.318-62.75,76.782-94.489,125.231-253.763,387.394-930.137-900.935-1245.812-585.833-159.49,159.2-130.016,324.919-1069.322-314.09-360.776-245.434-383.409-29.554-555.433,4.761-290.258,57.863-1501.95-652.15-1152.87-18.8,275.985,500.735-122.967,155.341-393.98,55.432l.723-2.245Z" fill="#0ca1a5" fill-rule="evenodd"/><path d="M-2492.672,291.86C-2222.079,396.6-1839,722.483-2111.826,230.63c-350.454-631.878,862.08,74.292,1151.928,15.681,171.787-34.724,193.826-250.492,554.948-6.244C535.265,876.018,505.359,710.53,664.285,551.03c314.567-315.669,993.807,969.719,1246.307,581.98,42.053-64.569,83.717-116.837,124.989-158.492l-2.8,8.677c-39.584,40.789-79.531,91.35-119.822,153.237-252.521,387.735-931.75-897.659-1246.313-581.974C507.7,713.96,537.619,879.45-402.616,243.472c-361.1-244.227-383.153-28.462-554.937,6.263-289.852,58.592-1502.4-647.557-1151.912-15.7,273.856,493.729-113.184,163.526-383.939,60.1l.732-2.271Z" fill="#0ca1a5" fill-rule="evenodd"/><path d="M-2499.187,312.052c269.951,107.984,640.535,418.346,370.106-66.252-351.842-630.486,861.623,71.993,1151.1,12.695C-806.4,223.327-784.938,7.68-423.465,250.8c941.181,633.044,910.88,467.75,1069.274,307.968,313.513-316.248,995.568,966.419,1246.884,578.313,50.306-77.7,100.112-137.685,149.39-182.714l-2.667,8.254c-47.65,44.5-95.756,102.816-144.357,177.867C1643.733,1528.616,961.676,245.92,648.16,562.167c-158.4,159.8-128.073,325.09-1069.256-307.935-361.494-243.143-382.957-27.48-554.52,7.679-289.487,59.307-1502.964-643.176-1151.119-12.7,271.452,486.415-102.961,171.862-373.149,65l.7-2.157Z" fill="#0ca1a5" fill-rule="evenodd"/><path d="M-2505.556,331.786c268.952,111.036,626.418,405.44,358.632-71.586-353.2-629.21,861.268,69.807,1150.432,9.814,171.387-35.57,192.3-251.15,554.152-9.07C499.841,891.226,469.137,726.126,627.036,566.033c312.523-316.857,997.373,963.339,1247.568,574.832,58.336-90.592,116.021-157,173.081-203.831l-2.4,7.44c-55.51,46.617-111.6,111.732-168.309,199.792-250.194,388.506-935.049-891.673-1247.568-574.83C471.49,729.537,502.2,894.647-439.975,264.343c-361.852-242.078-382.764-26.484-554.151,9.072-289.158,59.993-1503.638-639-1150.431-9.8,268.8,478.861-92.415,180.393-361.7,70.336l.7-2.163Z" fill="#0ca1a5" fill-rule="evenodd"/><path d="M-2511.818,351.189c267.573,113.78,611.4,391.863,346.5-77.356-354.556-628.057,861.008,67.69,1149.875,7.009,171.2-35.948,191.593-251.481,553.853-10.393C481.65,898.147,450.575,733.189,608,572.808c311.6-317.455,999.207,960.441,1248.334,571.542,66.189-103.326,131.6-175.329,196.268-222.562l-2.17,6.731c-63.177,47.272-127.088,118.3-191.741,219.229-249.112,388.9-936.719-888.993-1248.326-571.541C452.928,736.583,484.027,901.558-459.211,273.847c-362.274-241.084-382.656-25.56-553.855,10.4-288.869,60.65-1504.446-635.063-1149.893-7.042,265.908,471.044-81.548,189.027-349.537,76.085l.678-2.1Z" fill="#0ca1a5" fill-rule="evenodd"/><path d="M-2517.926,370.115c265.741,116.179,595.358,377.64,333.633-83.5-355.87-626.99,860.851,65.665,1149.472,4.369,171.056-36.342,190.932-251.843,553.615-11.69C463.142,904.595,431.663,739.76,588.678,579.071c310.757-318.035,1001.06,957.789,1249.2,568.442,73.874-115.941,146.907-192.72,219.037-239.08l-1.965,6.081c-70.723,46.644-142.291,122.8-214.7,236.386-248.133,389.343-938.43-886.5-1249.2-568.44C434.052,743.161,465.5,907.995-478.828,282.7c-362.69-240.154-382.56-24.674-553.626,11.66C-1321.075,355.677-2537.793-336.986-2181.925,290c262.728,462.9-70.412,197.656-336.663,82.16l.662-2.048Z" fill="#0ca1a5" fill-rule="evenodd"/><path d="M-2523.907,388.648c263.436,118.16,578.4,362.72,320.069-90.086-357.172-626.048,860.773,63.757,1149.188,1.818,170.943-36.709,190.34-252.19,553.472-12.887C444.286,910.549,412.463,745.836,569.1,584.821c309.971-318.643,1002.908,955.35,1250.12,565.552,81.457-128.431,161.953-209.278,241.437-253.567l-1.858,5.759c-78.107,44.807-157.186,125.048-237.185,251.2C1574.4,1543.558,881.463,269.555,571.485,588.212,414.85,749.212,446.68,913.929-498.8,290.86c-363.125-239.273-382.519-23.8-553.454,12.911-288.415,61.929-1506.364-627.888-1149.207-1.829,259.332,454.565-59.056,206.349-323.1,88.76l.663-2.054Z" fill="#0ca1a5" fill-rule="evenodd"/><path d="M-2529.747,406.741c260.585,119.635,560.461,347.08,305.8-97.127-358.432-625.222,860.8,61.955,1149.062-.571,170.827-37.075,189.773-252.567,553.358-14.06,946.661,621,914.5,456.381,1070.763,295.067C858.508,270.78,1554.022,1543.161,1800.387,1152.9c88.842-140.722,176.664-224.376,263.337-265.564l-1.783,5.522c-85.322,41.885-171.727,124.954-259.153,263.423C1556.419,1546.532,860.9,274.161,551.611,593.432,395.356,754.741,427.523,919.37-519.148,298.374c-363.579-238.52-382.524-23.029-553.366,14.041-288.246,62.535-1507.479-624.647-1149.049.578,255.646,445.928-47.538,214.99-308.827,95.742l.643-1.994Z" fill="#0ca1a5" fill-rule="evenodd"/><path d="M-2535.425,424.335c257.149,120.606,541.5,330.746,290.794-104.57-359.661-624.51,860.94,60.256,1149.058-2.852C-924.809,279.525-906.295,64-542.236,301.774,405.642,920.9,373.16,756.343,529.1,594.721c308.649-319.875,1006.684,951.122,1252.273,560.386,96.1-152.883,191.1-238.436,284.86-275.567l-1.612,5c-92.454,37.969-186.121,123.242-280.844,273.931C1538.183,1549.216,840.139,278.21,531.5,598.083,375.557,759.711,408.049,924.276-539.847,305.14-903.9,67.364-922.413,282.892-1093.178,320.292c-288.123,63.094-1508.714-621.656-1149.058,2.847,251.694,437.033-35.868,223.495-293.818,103.145l.629-1.949Z" fill="#0ca1a5" fill-rule="evenodd"/><path d="M-2540.943,441.431c253.084,120.953,521.556,313.715,275.079-112.458-360.881-623.914,861.137,58.675,1149.179-4.968,170.72-37.734,188.83-253.313,553.374-16.182,949.16,617.461,916.358,452.932,1072.019,291,308.09-320.47,1008.56,949.369,1253.458,558.132,103.268-164.962,205.418-251.822,306.185-283.978l-1.466,4.54c-99.51,33.132-200.383,119.966-302.307,282.8C1519.674,1551.581,819.2,281.722,511.1,602.194,355.473,764.13,388.245,928.634-560.9,311.2c-364.552-237.149-382.671-21.542-553.386,16.171C-1402.316,391-2624.33-291.584-2263.467,332.346c247.478,427.866-24.136,231.865-278.1,111.013l.622-1.928Z" fill="#0ca1a5" fill-rule="evenodd"/><path d="M-2546.3,458.026c248.333,120.661,500.606,295.9,258.627-120.794-362.018-623.469,861.461,57.178,1149.468-6.973,170.684-38.022,188.441-253.694,553.479-17.134,950.459,615.968,917.353,451.47,1072.78,289.231,307.611-321.1,1010.451,947.868,1254.732,556.094,110.355-176.955,219.6-264.547,327.318-290.886l-1.384,4.289c-106.5,27.459-214.46,115.086-323.525,289.97-244.29,391.772-947.118-877.2-1254.735-556.11C335.058,767.952,368.139,932.462-582.307,316.5-947.345,79.939-965.1,295.61-1135.8,333.628c-288,64.146-1511.48-616.493-1149.458,6.961,242.944,418.4-12.343,240.061-261.659,119.353l.618-1.916Z" fill="#0ca1a5" fill-rule="evenodd"/><path d="M-2551.487,474.057c242.864,119.688,478.637,277.335,241.453-129.6-363.135-623.106,861.895,55.835,1149.884-8.8,170.7-38.307,188.109-254.082,553.654-18.011C345.284,932.329,311.918,767.811,467.141,605.278c307.216-321.694,1012.32,946.627,1256.084,554.328,117.306-188.816,233.525-276,348.1-295.822L2070,867.9c-113.365,21.065-228.324,108.326-344.371,295.057-243.748,392.3-948.86-876.025-1256.069-554.324C314.34,771.187,347.694,935.7-604.079,321.005c-365.545-236.072-382.971-20.279-553.648,18.033-288.005,64.625-1513.031-614.336-1149.892,8.777,238.151,408.63-.561,247.973-244.478,128.132l.61-1.89Z" fill="#0ca1a5" fill-rule="evenodd"/><path d="M-2556.461,489.517c236.556,117.914,455.563,257.952,223.517-138.864-364.231-622.894,862.366,54.625,1150.436-10.463,170.716-38.568,187.842-254.488,553.9-18.818,953.14,613.6,919.517,449.047,1074.588,286.21,306.891-322.3,1014.185,945.624,1257.491,552.792,124.22-200.567,247.345-286.646,368.712-299.262l-1.208,3.739c-120.187,13.966-242.111,100.327-365.073,298.877C1462.587,1556.575,755.3,288.64,448.393,610.939,293.34,773.8,326.951,938.349-626.185,324.749c-366.072-235.691-383.178-19.766-553.9,18.815-288.044,65.066-1514.657-612.442-1150.427,10.45,233.021,398.514,11.171,255.589-226.547,137.365l.6-1.862Z" fill="#0ca1a5" fill-rule="evenodd"/><path d="M-2561.239,504.323c229.441,115.358,431.4,237.767,204.833-148.552-365.26-622.807,862.978,53.533,1151.129-11.956,170.785-38.831,187.625-254.891,554.228-19.544,954.511,612.748,920.664,448.136,1075.6,285,306.672-322.9,1016.036,944.88,1258.995,551.483,131.068-212.255,261.126-296.714,389.245-301.506l-1.1,3.411c-126.962,6.2-255.841,91.158-385.715,301.458-242.94,393.4-952.332-874.393-1258.992-551.494C272.032,775.759,305.891,940.374-648.642,327.628c-366.59-235.344-383.434-19.27-554.221,19.544C-1491,412.674-2719.238-263.672-2353.97,359.136c227.571,388.012,22.826,262.8-207.865,147.031l.6-1.844Z" fill="#0ca1a5" fill-rule="evenodd"/><path d="M-2565.8,518.447c221.4,111.9,406.146,216.738,185.4-158.671-366.25-622.851,863.666,52.6,1151.946-13.278,170.867-39.035,187.469-255.3,554.607-20.195C282.086,938.415,248.015,773.714,402.9,610.288c306.515-323.492,1017.854,944.426,1260.542,550.45C1801.346,936.87,1938.272,854.655,2073.1,858.3l-1.1,3.4c-133.667-2.113-269.425,80.485-406.122,302.405-242.7,393.972-954.033-873.951-1260.548-550.459C250.457,777.095,284.509,941.769-671.407,329.667c-367.15-235.088-383.757-18.851-554.611,20.188-288.282,65.881-1518.206-609.567-1151.943,13.273,221.752,377.137,34.33,269.611-188.432,157.161l.594-1.842Z" fill="#0ca1a5" fill-rule="evenodd"/><path d="M-2570.119,531.835c212.415,107.517,379.7,194.824,165.157-169.207-35.253-59.82-55.637-107.57-63.666-145.264l1.177-3.648c6.8,38.7,27.424,88.629,64.924,152.274,215.574,365.758,45.648,275.882-168.184,167.677l.592-1.832Zm134.86-417.865C-2255.1,11.054-1474.1,399.186-1252.013,348.217c170.957-39.251,187.376-255.689,555.058-20.768C260.388,939.148,226.124,774.364,380.988,610.62c306.468-324.058,1019.653,944.246,1262.162,549.7C1787.817,924.947,1931.558,846.056,2073,858.585l-1,3.1c-140.33-10.942-282.917,68.541-426.4,302-242.522,394.549-955.7-873.758-1262.18-549.689C228.579,777.72,262.826,942.52-694.509,330.817c-367.69-234.938-384.113-18.49-555.084,20.765C-1473.537,402.975-2265.767,7.9-2437.222,120.051l1.963-6.081Z" fill="#0ca1a5" fill-rule="evenodd"/><path d="M-2574.185,544.431C-2371.8,646.544-2222.136,716.4-2430.028,364.3c-23.906-40.486-40.9-75.358-51.989-105.455l.618-1.914c10.971,31.267,28.466,67.822,53.808,110.724,208.94,353.859,56.723,281.532-147.182,178.6l.588-1.823Zm142.121-440.362c222.522-57.118,944.057,293.713,1156.088,244.867,171.107-39.413,187.365-256.1,555.587-21.241C238.388,939.218,203.97,774.3,358.828,610.269c306.518-324.627,1021.444,944.347,1263.854,549.222,151.434-246.831,302-321.969,450.036-300.045l-.908,2.813c-146.943-20.3-296.386,55.62-446.675,300.6C1382.7,1557.985,667.781,289.005,361.28,613.64,206.406,777.653,240.833,942.593-717.938,331.058c-368.231-234.86-384.493-18.183-555.6,21.234-213.332,49.147-942.324-306.178-1160.01-243.624l1.484-4.6Z" fill="#0ca1a5" fill-rule="evenodd"/><path d="M-2577.973,556.116c191.219,95.641,323.1,148.164,122.341-191.392a798.248,798.248,0,0,1-37.645-71.033l.353-1.094a786.319,786.319,0,0,0,39.736,75.5c201.839,341.345,67.488,286.455-125.378,189.861l.593-1.844Zm147.35-456.564c249.075-26.846,926.028,296.253,1130.3,249.058,171.26-39.58,187.406-256.5,556.194-21.594C216.088,938.6,181.529,773.509,336.449,609.2c306.653-325.176,1023.172,944.74,1265.6,549.019,158.224-258.265,315.629-329.2,470.233-297.4l-.9,2.808c-153.54-30.1-309.795,41.57-466.9,297.96C1362.059,1557.3,645.546,287.393,338.9,612.573c-154.938,164.3-120.357,329.4-1080.587-282.2-368.779-234.89-384.92-17.959-556.179,21.621C-1503.16,399.4-2185.828,72.9-2431.854,103.371l1.231-3.819Z" fill="#0ca1a5" fill-rule="evenodd"/><path d="M-2581.416,566.84c178.827,87.993,292.784,123.313,99.661-202.962-8.047-13.623-15.092-26.4-21.639-38.791l.265-.821c7.123,13.657,14.853,27.814,23.819,42.985,194.211,328.105,77.854,290.512-102.71,201.459l.6-1.87Zm151.693-470.026c268.121-3.728,907.2,296.147,1104.689,250.413,171.454-39.7,187.513-256.9,556.86-21.886C193.5,937.255,158.807,771.964,313.864,607.39c306.876-325.715,1024.812,945.427,1267.374,549.121,164.977-269.545,329.141-335.154,490.233-293.173l-.828,2.565c-160.059-40.242-323.089,26.262-486.948,293.973C1341.14,1556.2,623.169,285.053,316.31,610.759,161.27,775.345,195.946,940.616-765.73,328.722c-369.339-235.022-385.4-17.832-556.854,21.867-198.347,45.927-842.143-256.752-1108.228-250.4l1.089-3.373Z" fill="#0ca1a5" fill-rule="evenodd"/><path d="M-2584.522,576.414c165.039,79.007,260.935,97.323,76.149-214.7-1.572-2.646-2.877-5.07-4.385-7.667l.2-.608c2.247,3.917,4.278,7.638,6.632,11.636,185.952,313.988,87.737,293.5-79.209,213.243l.616-1.908ZM-2429.1,94.828c282.269,14.739,887.652,294.255,1078.981,249.9,171.686-39.8,187.694-257.279,557.6-22.054C170.6,935.146,135.826,769.66,291.033,604.823c307.211-326.234,1026.459,946.43,1269.221,549.543,171.776-280.814,342.7-340.689,510.276-288.115l-.755,2.335c-166.529-50.8-336.378,10.129-507.052,289.142C1319.93,1554.632,600.7,281.96,293.494,608.2,138.3,773.028,173.065,938.521-790.058,326.043c-369.9-235.226-385.931-17.728-557.588,22.058-192.134,44.534-801.7-237.434-1082.491-250.051l1.04-3.222Z" fill="#0ca1a5" fill-rule="evenodd"/><path d="M-2587.185,584.718c145.6,66.678,222.821,69.707,65.47-202.865l.181-.559c161.446,278.417,81.935,273.683-66.281,205.37l.63-1.946ZM-2428.5,93.011c292.882,29.955,867.376,291.115,1052.953,248.086,171.924-39.86,187.957-257.668,558.4-22.117C147.424,932.288,112.6,766.56,268,601.482c307.641-326.735,1028.019,947.746,1271.124,550.254,178.624-292.066,356.37-345.756,530.356-282.224l-.742,2.289c-172.956-61.7-349.627-6.968-527.145,283.3C1298.479,1552.6,578.117,278.118,270.466,604.858c-155.408,165.077-120.6,330.8-1085.147-282.511-370.437-235.541-386.477-17.737-558.4,22.138-186.3,43.194-764.618-220.209-1056.4-248.432l.982-3.042Z" fill="#0ca1a5" fill-rule="evenodd"/><path d="M-2589.354,591.435c123.006,52.423,182.753,43.131,58.629-181.664l.211-.655c128.094,230.6,66.337,238.6-59.507,184.385l.667-2.066Zm161.465-500.3c300.531,42.454,846.444,286.894,1026.556,245.152,172.212-39.9,188.31-258.067,559.306-22.077C123.95,928.624,89.1,762.634,244.791,597.311,552.945,270.1,1274.277,1546.7,1517.815,1148.616c185.49-303.2,369.992-349.645,550.318-274.939l-.686,2.125c-179.328-72.869-362.759-25.243-547.149,276.187-243.569,398.1-964.884-878.5-1273.043-551.29C91.558,766.015,126.4,932.009-839.561,317.585c-371-235.971-387.1-17.815-559.295,22.092-180.8,41.885-730.169-204.561-1029.962-245.664l.929-2.879Z" fill="#0ca1a5" fill-rule="evenodd"/><path d="M-2590.883,596.171c98.378,36.943,141.937,18.283,50.9-157.719l.266-.82c94.833,181.714,49.464,199.455-51.862,160.691l.694-2.152Zm163.74-507.347c305.86,52.962,824.825,281.882,999.713,241.423,172.505-39.917,188.69-258.416,560.245-21.91,967.4,615.8,932.53,449.521,1088.567,283.982C530.164,264.678,1252.242,1543.675,1496.354,1145c192.43-314.293,383.711-353.062,570.343-266.876l-.622,1.929c-185.643-84.339-375.886-44.227-567.255,268.338-244.1,398.66-966.2-880.327-1274.982-552.688C67.822,761.251,102.672,927.529-864.709,311.729c-371.545-236.515-387.753-17.984-560.251,21.908-175.545,40.6-697.685-190.146-1003.09-242l.907-2.809Z" fill="#0ca1a5" fill-rule="evenodd"/><path d="M-2591.5,598.085c71.185,20.367,99.68-4.047,41.71-129.24l.358-1.108c61.662,131.008,31.483,154.943-42.836,132.731l.768-2.383Zm165.294-512.167c309.179,61.762,802.559,276.2,972.349,237.03,172.862-39.875,189.2-258.779,561.287-21.625C76.193,918.794,41.38,752.2,197.772,586.446c309.544-328.062,1032.181,953.686,1276.973,554.429,199.469-325.372,397.56-356,590.438-258.06l-.623,1.936c-191.917-96.049-388.944-64.118-587.367,259.527-244.771,399.246-967.406-882.49-1276.952-554.435C43.844,755.583,78.675,922.2-890.121,304.729c-372.06-237.16-388.406-18.266-561.256,21.614-170.424,39.328-666.75-176.815-975.716-237.676l.886-2.749Z" fill="#0ca1a5" fill-rule="evenodd"/><path d="M-2590.523,595.056c40.742,3.638,56.038-20.3,29.81-92.366l.553-1.714c29.657,78.182,12.974,102.585-31.358,97.162l1-3.082ZM-2425.037,82.3c310.745,69.091,779.629,269.932,944.473,232.053,173.18-39.836,189.752-259.129,562.36-21.22C51.935,912.581,17.171,745.628,174,579.693c310.414-328.432,1033.39,956.328,1278.961,556.525,206.6-336.34,411.414-357.812,610.464-247.957l-.565,1.758c-198.09-107.964-401.888-85.036-607.425,249.6C1209.854,1539.435,486.88,254.665,176.488,583.1,19.643,749.033,54.4,915.983-915.727,296.537c-372.6-237.906-389.164-18.613-562.373,21.218-165.437,38.012-637.094-164.4-947.8-232.775l.866-2.682Z" fill="#0ca1a5" fill-rule="evenodd"/><path d="M-2583.465,573.185c3.6-4.9,5.876-11.317,6.378-19.76l2.28-7.065c1.394,17.8-2.815,29.188-11.479,35.569l2.821-8.744Zm159.858-495.317c310.7,75.127,756.075,263.1,916.027,226.511,173.619-39.711,190.426-259.446,563.54-20.659C27.4,905.444-7.253,738.106,150.093,572.007c311.368-328.763,1034.457,959.375,1280.938,559.009,213.827-347.3,425.425-359.191,630.595-237.173l-.521,1.606C1856.876,775.32,1646.3,788.812,1433.51,1134.427,1187.022,1534.811,463.922,246.653,152.55,575.413-4.773,741.53,29.88,908.867-941.576,287.124c-373.1-238.77-389.922-19.046-563.531,20.654-160.536,36.741-608.507-152.723-919.344-227.3l.844-2.612Z" fill="#0ca1a5" fill-rule="evenodd"/><path d="M-2421.884,72.528c309.212,79.991,731.872,255.772,887.037,220.48,174.022-39.566,191.178-259.748,564.766-19.968C2.643,897.368-31.864,729.636,126.009,563.365c312.48-329.05,1035.434,962.782,1282.981,561.887,221.182-358.218,439.536-359.911,650.741-225.544l-.51,1.586c-210.281-132.432-427.627-129.15-647.77,227.372C1163.907,1529.581,440.949,237.733,128.486,566.8-29.385,733.065,5.117,900.8-967.6,276.464c-373.59-239.781-390.747-19.594-564.771,19.978-155.7,35.412-580.855-141.755-890.339-221.355l.826-2.559Z" fill="#0ca1a5" fill-rule="evenodd"/><path d="M-2419.834,66.171c306.388,83.838,707.078,247.967,857.489,214.023,174.47-39.38,192-260.043,566.061-19.129C-22.364,888.319-56.68,720.148,101.8,553.755,415.506,224.444,1138.063,1520.311,1386.774,1118.9c228.677-369.05,453.761-359.679,670.914-212.852l-.475,1.464c-216.221-144.92-440.317-152.56-667.962,214.825C1140.539,1523.749,417.977,227.876,104.28,557.19-54.22,723.581-19.907,891.749-993.816,264.5c-374.061-240.919-391.59-20.255-566.065,19.12-150.945,34.093-553.982-131.388-860.772-214.914l.819-2.539Z" fill="#0ca1a5" fill-rule="evenodd"/><path d="M-2417.425,58.714c302.3,86.711,681.662,239.762,827.324,207.162,174.964-39.161,192.956-260.3,567.449-18.138C-47.59,878.231-81.673,709.628,77.494,543.121c315.028-329.5,1036.927,970.749,1286.962,568.844,236.351-379.882,468.143-358.95,691.151-199.48l-.422,1.314c-222.124-157.571-452.939-176.616-688.255,201.616C1116.893,1517.321,395,217.052,79.963,546.576c-159.171,166.5-125.08,335.111-1100.147-295.4-374.489-242.155-392.47-21.028-567.43,18.149-146.2,32.71-527.776-121.561-830.621-208.108l.81-2.506Z" fill="#0ca1a5" fill-rule="evenodd"/><path d="M-2414.644,50.093c297.064,88.7,655.674,231.123,796.621,199.889,175.477-38.893,193.971-260.528,568.864-16.978,976.14,634.122,942.32,465.011,1102.24,298.45,316.5-329.662,1037.435,975.31,1288.932,572.935C1586.19,713.769,1824.662,747,2053.422,919.239l-.429,1.321c-227.875-170.329-465.374-201.672-708.5,187.292-251.511,402.369-972.435-902.6-1288.947-572.937C-104.371,701.476-70.552,870.589-1046.684,236.468c-374.9-243.545-393.389-21.887-568.872,16.976C-1757.011,284.8-2117.748,141.2-2415.445,52.573l.8-2.48Z" fill="#0ca1a5" fill-rule="evenodd"/><path d="M-2411.447,40.189c290.715,89.882,629.115,222.159,765.327,192.31,176.008-38.564,195.08-260.736,570.353-15.667C-98.635,854.919-132.142,685.293,28.586,518.682c318.1-329.749,1037.752,980.306,1290.866,577.512,252.192-401.316,497.3-355.017,731.7-169.92l-.387,1.207c-233.537-183.224-477.675-227.5-728.833,172.194C1068.8,1502.465,349.162,192.421,31.039,522.16-129.673,688.769-96.163,858.4-1073.3,220.317c-375.27-245.078-394.343-22.906-570.358,15.656-136.719,29.963-477.151-103.42-768.585-193.32l.795-2.464Z" fill="#0ca1a5" fill-rule="evenodd"/><path d="M-2407.826,28.97c283.317,90.292,601.987,212.8,733.467,184.345,176.579-38.191,196.293-260.894,571.914-14.169C-124.441,841.585-157.588,671.409,4.04,504.8c319.843-329.772,1037.851,985.736,1292.733,582.534,260.45-411.979,512.157-352.069,752.1-153.993l-.375,1.155c-239.083-196.221-489.836-254.013-749.249,156.339C1044.359,1494.011,326.34,178.522,6.493,508.285c-161.593,166.622-128.47,336.8-1106.47-305.632-375.616-246.738-395.347-24.033-571.918,14.16-131.973,28.545-452.592-94.994-736.726-185.382l.8-2.461Z" fill="#0ca1a5" fill-rule="evenodd"/><path d="M-2403.766,16.336c274.957,89.97,574.358,203.077,701.032,176.073,177.206-37.756,197.642-261.039,573.556-12.48C-150.4,827.079-183.107,656.341-20.561,489.753c321.714-329.719,1037.774,991.556,1294.578,588.026,268.891-422.553,527.113-348.091,772.441-136.967l-.354,1.1c-244.5-209.266-501.755-281.539-769.636,139.381C1019.682,1484.815,303.628,163.543-18.094,493.258c-162.569,166.59-129.844,337.323-1108.619-309.816-375.907-248.548-396.361-25.289-573.557,12.487-127.182,27.1-428.439-87.02-704.288-177.139l.792-2.454Z" fill="#0ca1a5" fill-rule="evenodd"/><path d="M-2399.211,2.227c265.624,88.942,546.182,193.018,668.062,167.467,177.81-37.273,199.065-261.115,575.231-10.6C-176.509,811.36-208.737,640.03-45.159,473.5,278.585,143.914,992.288,1471.373,1251.15,1067.545c277.634-433.082,542.271-343.438,792.876-119.175l-.32,1c-249.778-222.418-513.492-309.779-790.1,121.692C994.725,1474.9,281.036,147.444-42.721,477.024c-163.56,166.53-131.312,337.864-1110.746-314.393-376.162-250.522-397.412-26.679-575.241,10.589-122.35,25.652-404.707-79.38-671.3-168.532l.8-2.461Z" fill="#0ca1a5" fill-rule="evenodd"/><path d="M-2394.143-13.429c255.39,87.254,517.535,182.621,634.52,158.547,178.475-36.752,200.6-261.166,576.979-8.52C-202.722,794.387-234.426,622.423-69.763,456.012c325.907-329.38,1036.851,1004.63,1297.988,600.551,286.63-443.539,557.615-337.964,813.326-100.524l-.322,1.005c-254.907-235.611-524.957-338.861-810.565,103.049C969.537,1464.2,258.612,130.181-67.3,459.558c-164.67,166.418-132.957,338.379-1112.883-319.42-376.364-252.639-398.494-28.223-577,8.526-117.457,24.191-381.324-72.108-637.744-159.645l.79-2.448Z" fill="#0ca1a5" fill-rule="evenodd"/><path d="M-2388.578-30.72c244.351,84.917,488.44,171.909,600.474,149.312,179.183-36.146,202.279-261.153,578.788-6.233,980.269,663.742,949.171,491.118,1115,324.847C233.922,108.139,941.659,1449.1,1205.228,1044.829c295.91-453.913,573.1-331.482,833.748-80.834l-.3.932c-259.845-248.868-536.117-368.844-831.01,83.477C944.115,1452.661,236.379,111.721-91.864,440.794-257.69,607.05-226.6,779.662-1206.873,115.929c-376.494-254.932-399.59-29.9-578.784,6.236-112.506,22.688-358.295-65.156-603.712-150.436l.791-2.449Z" fill="#0ca1a5" fill-rule="evenodd"/></g></g></svg>